# Blender 3.6.9
# www.blender.org
mtllib PuertaTrasera.mtl
o PuertaTrasera
v -61.011658 0.056421 -66.069344
v -61.011658 0.056421 -72.480423
v -61.011658 18.396952 -66.069344
v -61.011658 18.396952 -72.480423
v -62.950401 18.396952 -66.069344
v -62.950401 18.396952 -72.480423
v -62.950401 0.056421 -66.069344
v -62.950401 0.056421 -72.480423
v -61.011658 0.563899 -66.246735
v -61.011658 0.563899 -72.303032
v -61.011658 17.889473 -72.303032
v -61.011658 17.889473 -66.246735
v -61.330864 0.563899 -66.246735
v -61.330864 0.563899 -72.303032
v -61.330864 17.889473 -72.303032
v -61.330864 17.889473 -66.246735
v -61.330864 1.180788 -66.462372
v -61.330864 1.180788 -72.087395
v -61.330864 17.272585 -72.087395
v -61.330864 17.272585 -66.462372
v -61.757637 1.180788 -66.462372
v -61.757637 1.180788 -72.087395
v -61.757637 17.272585 -72.087395
v -61.757637 17.272585 -66.462372
v -61.296219 1.228595 -66.989639
v -61.296219 1.228595 -71.560127
v -61.296219 13.945384 -66.989639
v -61.296219 13.945384 -71.560127
v -61.767075 13.945384 -66.989639
v -61.767075 13.945384 -71.560127
v -61.767075 1.228595 -66.989639
v -61.767075 1.228595 -71.560127
v -61.243393 1.720279 -67.166359
v -61.243393 1.720279 -71.383415
v -61.243393 13.453701 -71.383415
v -61.243393 13.453701 -67.166359
v -61.298775 2.303660 -67.376022
v -61.298775 2.303660 -71.173744
v -61.298775 12.870321 -71.173744
v -61.298775 12.870321 -67.376022
v -61.201897 2.308451 -67.457848
v -61.201897 2.308451 -71.091919
v -61.201897 6.229735 -67.457848
v -61.201897 6.229735 -71.091919
v -61.299042 6.229735 -67.457848
v -61.299042 6.229735 -71.091919
v -61.299042 2.308451 -67.457848
v -61.299042 2.308451 -71.091919
v -61.195923 2.582579 -67.711899
v -61.195923 2.582579 -70.837868
v -61.195923 5.955607 -70.837868
v -61.195923 5.955607 -67.711899
vn 1.0000 -0.0000 -0.0000
vn -0.0000 1.0000 -0.0000
vn -1.0000 -0.0000 -0.0000
vn -0.0000 -1.0000 -0.0000
vn -0.0000 -0.0000 -1.0000
vn -0.0000 -0.0000 1.0000
vn 0.9943 -0.1068 -0.0000
vn 0.9581 -0.0000 -0.2864
vn 0.9943 0.1068 -0.0000
vn 0.9581 -0.0000 0.2864
vn 0.9955 0.0945 -0.0000
vn 0.9669 -0.0000 0.2553
vn 0.9668 -0.0000 0.2554
vn 0.9955 -0.0945 -0.0000
vn 0.9669 -0.0000 -0.2553
vn 0.9668 -0.0000 -0.2554
vn 0.9998 -0.0218 -0.0000
vn 0.9997 -0.0000 -0.0235
vn 0.9998 0.0218 -0.0000
vn 0.9997 -0.0000 0.0235
vt 0.099014 0.287601
vt 0.100068 0.270965
vt 0.180259 0.287623
vt 0.181313 0.270987
vt 0.375269 0.451022
vt 0.375269 0.445773
vt 0.376856 0.451022
vt 0.376856 0.445773
vt 0.193868 0.301251
vt 0.089172 0.295259
vt 0.192202 0.027632
vt 0.088657 0.027791
vt 0.373521 0.451853
vt 0.373521 0.446604
vt 0.375109 0.451853
vt 0.375109 0.446604
vt 0.376075 0.406444
vt 0.378266 0.406444
vt 0.376075 0.427164
vt 0.378266 0.427164
vt 0.378532 0.406444
vt 0.380723 0.406444
vt 0.378532 0.427164
vt 0.380723 0.427164
vt 0.380978 0.421083
vt 0.381144 0.421083
vt 0.380982 0.421096
vt 0.381139 0.421096
vt 0.381144 0.421559
vt 0.381139 0.421545
vt 0.380978 0.421559
vt 0.380982 0.421545
vt 0.380989 0.427164
vt 0.380989 0.406444
vt 0.381189 0.426591
vt 0.381189 0.407018
vt 0.381099 0.421719
vt 0.381099 0.421562
vt 0.381107 0.421719
vt 0.381107 0.421562
vt 0.381158 0.421083
vt 0.381158 0.421532
vt 0.381150 0.421083
vt 0.381150 0.421532
vt 0.372939 0.446604
vt 0.372939 0.451563
vt 0.372678 0.446604
vt 0.372678 0.451563
vt 0.563335 0.536071
vt 0.563335 0.001992
vt 0.573175 0.536071
vt 0.573175 0.001992
vt 0.381179 0.421083
vt 0.381336 0.421083
vt 0.381185 0.421099
vt 0.381330 0.421099
vt 0.381336 0.421532
vt 0.381330 0.421516
vt 0.381179 0.421532
vt 0.381185 0.421516
vt 0.381069 0.421708
vt 0.381069 0.421562
vt 0.381080 0.421708
vt 0.381080 0.421562
vt 0.381504 0.421083
vt 0.381504 0.421500
vt 0.381493 0.421083
vt 0.381493 0.421500
vt 0.372008 0.446604
vt 0.372008 0.451209
vt 0.371659 0.446604
vt 0.371659 0.451209
vt 0.381504 0.421921
vt 0.381504 0.421504
vt 0.381516 0.421921
vt 0.381516 0.421504
vt 0.101588 0.102412
vt 0.181662 0.103156
vt 0.103820 0.241240
vt 0.181662 0.244960
vt 0.371113 0.450346
vt 0.371113 0.446604
vt 0.371499 0.450346
vt 0.371499 0.446604
vt 0.378108 0.445773
vt 0.381850 0.445773
vt 0.378108 0.456185
vt 0.381850 0.456185
vt 0.370567 0.450346
vt 0.370567 0.446604
vt 0.370953 0.450346
vt 0.370953 0.446604
vt 0.381240 0.421536
vt 0.381252 0.421536
vt 0.381240 0.421865
vt 0.381252 0.421865
vt 0.381223 0.421536
vt 0.381235 0.421536
vt 0.381223 0.421865
vt 0.381235 0.421865
vt 0.381381 0.421504
vt 0.381499 0.421504
vt 0.381386 0.421516
vt 0.381495 0.421516
vt 0.381499 0.421833
vt 0.381495 0.421820
vt 0.381381 0.421833
vt 0.381386 0.421820
vt 0.381391 0.421531
vt 0.381489 0.421531
vt 0.381489 0.421805
vt 0.381391 0.421805
vt 0.266848 0.046373
vt 0.297803 0.046373
vt 0.266848 0.109334
vt 0.297803 0.109334
vt 0.298043 0.098085
vt 0.298043 0.047058
vt 0.298247 0.098085
vt 0.298247 0.047058
vt 0.266772 0.047392
vt 0.296740 0.047392
vt 0.266772 0.108315
vt 0.296740 0.108315
vt 0.297428 0.098085
vt 0.297428 0.047058
vt 0.297632 0.098085
vt 0.297632 0.047058
vt 0.299272 0.047058
vt 0.299476 0.047058
vt 0.299272 0.102118
vt 0.299476 0.102118
vt 0.298657 0.047058
vt 0.298861 0.047058
vt 0.298657 0.102118
vt 0.298861 0.102118
vt 0.261571 0.040622
vt 0.300263 0.040622
vt 0.264276 0.045827
vt 0.297558 0.045827
vt 0.300263 0.115085
vt 0.297558 0.109879
vt 0.261571 0.115085
vt 0.264276 0.109879
s 0
usemtl PuertaCasa:phong5SG.002
f 21/1/1 22/2/1 24/3/1
f 24/3/1 22/2/1 23/4/1
f 3/5/2 4/6/2 5/7/2
f 5/7/2 4/6/2 6/8/2
f 5/9/3 6/10/3 7/11/3
f 7/11/3 6/10/3 8/12/3
f 7/13/4 8/14/4 1/15/4
f 1/15/4 8/14/4 2/16/4
f 2/17/5 8/18/5 4/19/5
f 4/19/5 8/18/5 6/20/5
f 7/21/6 1/22/6 5/23/6
f 5/23/6 1/22/6 3/24/6
f 1/25/1 2/26/1 9/27/1
f 9/27/1 2/26/1 10/28/1
f 2/26/1 4/29/1 10/28/1
f 10/28/1 4/29/1 11/30/1
f 4/29/1 3/31/1 11/30/1
f 11/30/1 3/31/1 12/32/1
f 3/33/1 1/34/1 12/35/1
f 12/35/1 1/34/1 9/36/1
f 9/37/2 10/38/2 13/39/2
f 13/39/2 10/38/2 14/40/2
f 10/41/6 11/42/6 14/43/6
f 14/43/6 11/42/6 15/44/6
f 11/45/4 12/46/4 15/47/4
f 15/47/4 12/46/4 16/48/4
f 12/49/5 9/50/5 16/51/5
f 16/51/5 9/50/5 13/52/5
f 13/53/1 14/54/1 17/55/1
f 17/55/1 14/54/1 18/56/1
f 14/54/1 15/57/1 18/56/1
f 18/56/1 15/57/1 19/58/1
f 15/57/1 16/59/1 19/58/1
f 19/58/1 16/59/1 20/60/1
f 16/59/1 13/53/1 20/60/1
f 20/60/1 13/53/1 17/55/1
f 17/61/2 18/62/2 21/63/2
f 21/63/2 18/62/2 22/64/2
f 18/65/6 19/66/6 22/67/6
f 22/67/6 19/66/6 23/68/6
f 19/69/4 20/70/4 23/71/4
f 23/71/4 20/70/4 24/72/4
f 20/73/5 17/74/5 24/75/5
f 24/75/5 17/74/5 21/76/5
f 37/77/1 38/78/1 40/79/1
f 40/79/1 38/78/1 39/80/1
f 27/81/2 28/82/2 29/83/2
f 29/83/2 28/82/2 30/84/2
f 29/85/3 30/86/3 31/87/3
f 31/87/3 30/86/3 32/88/3
f 31/89/4 32/90/4 25/91/4
f 25/91/4 32/90/4 26/92/4
f 26/93/5 32/94/5 28/95/5
f 28/95/5 32/94/5 30/96/5
f 31/97/6 25/98/6 29/99/6
f 29/99/6 25/98/6 27/100/6
f 25/101/7 26/102/7 33/103/7
f 33/103/7 26/102/7 34/104/7
f 26/102/8 28/105/8 34/104/8
f 34/104/8 28/105/8 35/106/8
f 28/105/9 27/107/9 35/106/9
f 35/106/9 27/107/9 36/108/9
f 27/107/10 25/101/10 36/108/10
f 36/108/10 25/101/10 33/103/10
f 33/103/11 34/104/11 37/109/11
f 37/109/11 34/104/11 38/110/11
f 34/104/12 35/106/12 38/110/12
f 38/110/13 35/106/13 39/111/13
f 35/106/14 36/108/14 39/111/14
f 39/111/14 36/108/14 40/112/14
f 36/108/15 33/103/15 40/112/15
f 40/112/16 33/103/16 37/109/16
f 49/113/1 50/114/1 52/115/1
f 52/115/1 50/114/1 51/116/1
f 43/117/2 44/118/2 45/119/2
f 45/119/2 44/118/2 46/120/2
f 45/121/3 46/122/3 47/123/3
f 47/123/3 46/122/3 48/124/3
f 47/125/4 48/126/4 41/127/4
f 41/127/4 48/126/4 42/128/4
f 42/129/5 48/130/5 44/131/5
f 44/131/5 48/130/5 46/132/5
f 47/133/6 41/134/6 45/135/6
f 45/135/6 41/134/6 43/136/6
f 41/137/17 42/138/17 49/139/17
f 49/139/17 42/138/17 50/140/17
f 42/138/18 44/141/18 50/140/18
f 50/140/18 44/141/18 51/142/18
f 44/141/19 43/143/19 51/142/19
f 51/142/19 43/143/19 52/144/19
f 43/143/20 41/137/20 52/144/20
f 52/144/20 41/137/20 49/139/20
