# Blender 3.6.9
# www.blender.org
mtllib CajaUno.mtl
o CajaUNO
v 0.486463 0.000001 0.171423
v 0.486463 1.441368 0.171423
v -0.474086 0.000001 0.203160
v -0.474086 1.441368 0.203160
v 0.474086 0.000001 -0.203166
v 0.474086 1.441368 -0.203166
v -0.486463 0.000001 -0.171429
v -0.486463 1.441368 -0.171429
vn 0.0330 -0.0000 0.9995
vn -0.9995 -0.0000 0.0330
vn -0.0330 -0.0000 -0.9995
vn 0.9995 -0.0000 -0.0330
vn -0.0000 -1.0000 -0.0000
vn -0.0000 1.0000 -0.0000
vt 0.455075 0.228955
vt 0.455075 0.769327
vt 0.085935 0.769327
vt 0.085935 0.228955
vt 0.088549 0.229083
vt 0.088549 0.770433
vt 0.012034 0.770433
vt 0.012034 0.229083
vt 0.898199 0.229804
vt 0.892186 0.768802
vt 0.526380 0.769307
vt 0.529155 0.228691
vt 0.528259 0.228548
vt 0.528259 0.768734
vt 0.453605 0.768734
vt 0.453605 0.228548
vt 0.453873 0.151937
vt 0.453873 0.228292
vt 0.087933 0.228292
vt 0.087933 0.151937
vt 0.897963 0.769487
vt 0.897963 0.849793
vt 0.528174 0.849793
vt 0.528174 0.769487
s 0
usemtl CajaUno
f 1/1/1 2/2/1 4/3/1 3/4/1
f 3/5/2 4/6/2 8/7/2 7/8/2
f 7/9/3 8/10/3 6/11/3 5/12/3
f 5/13/4 6/14/4 2/15/4 1/16/4
f 3/17/5 7/18/5 5/19/5 1/20/5
f 8/21/6 4/22/6 2/23/6 6/24/6
