# Blender 3.6.9
# www.blender.org
mtllib TelaTecho.mtl
o TelaTecho
v -34.121475 88.100510 -72.795547
v -34.187996 88.100510 -72.761650
v -34.240791 88.100510 -72.708862
v -34.274689 88.100510 -72.642334
v -34.286369 88.100510 -72.568588
v -34.274689 88.100510 -72.494850
v -34.240791 88.100510 -72.428322
v -34.187996 88.100510 -72.375526
v -34.121475 88.100510 -72.341629
v -34.047729 88.100510 -72.329956
v -33.973984 88.100510 -72.341629
v -33.907463 88.100510 -72.375526
v -33.854668 88.100510 -72.428322
v -33.820770 88.100510 -72.494850
v -33.809090 88.100510 -72.568588
v -33.820770 88.100510 -72.642334
v -33.854668 88.100510 -72.708862
v -33.907463 88.100510 -72.761650
v -33.973988 88.100510 -72.795547
v -34.047729 88.100510 -72.807228
v -34.121475 102.984535 -72.795547
v -34.188000 102.984535 -72.761650
v -34.240791 102.984535 -72.708862
v -34.274689 102.984535 -72.642334
v -34.286369 102.984535 -72.568588
v -34.274689 102.984535 -72.494850
v -34.240795 102.984535 -72.428322
v -34.188000 102.984535 -72.375526
v -34.121475 102.984535 -72.341629
v -34.047729 102.984535 -72.329956
v -33.973988 102.984535 -72.341629
v -33.907463 102.984535 -72.375526
v -33.854668 102.984535 -72.428322
v -33.820770 102.984535 -72.494850
v -33.809090 102.984535 -72.568588
v -33.820770 102.984535 -72.642334
v -33.854668 102.984535 -72.708862
v -33.907463 102.984535 -72.761650
v -33.973991 102.984535 -72.795547
v -34.047729 102.984535 -72.807228
v -34.047729 88.100510 -72.568588
v -34.047729 102.984535 -72.568588
v -32.976395 102.136223 -71.706268
v -32.976395 103.513893 -72.437294
v -32.976395 102.432808 -71.706268
v -32.976395 103.810471 -72.437294
v -38.661846 102.432808 -71.706268
v -37.300854 106.956612 -77.138596
v -37.959133 107.074814 -77.634705
v -44.347298 102.432808 -71.623001
v -44.347298 103.810471 -76.053543
v -43.481567 108.366890 -82.955208
v -45.633476 109.015923 -85.089684
v -46.160629 105.641258 -72.046631
v -46.160629 107.018921 -77.808586
v -46.782921 109.290665 -83.411293
v -48.075897 109.015923 -87.800285
v -51.430733 110.825050 -88.631546
v -51.846085 108.710175 -72.482765
v -51.846085 108.710175 -76.913315
v -52.468369 111.965233 -78.897385
v -53.761345 114.628983 -83.286377
v -53.761345 117.409096 -87.748978
v -51.846085 108.413589 -72.482765
v -51.846085 108.413589 -76.913315
v -52.468369 111.668648 -78.897385
v -52.402527 112.159042 -87.800285
v -53.192230 118.018646 -87.623871
v -46.160629 105.344666 -72.129906
v -46.160629 106.722343 -77.891861
v -46.782921 108.994087 -83.411293
v -48.075897 108.719337 -87.800285
v -51.430733 110.528465 -88.631546
v -44.347298 102.136223 -71.706268
v -44.347298 103.513893 -76.136818
v -43.481567 108.070312 -82.955208
v -45.633476 108.719337 -85.089684
v -38.661846 102.136223 -71.706268
v -37.300854 106.660042 -77.138596
v -37.959133 106.778236 -77.634705
v -34.121475 88.100510 -72.795547
v -34.187996 88.100510 -72.761650
v -34.240791 88.100510 -72.708862
v -34.274689 88.100510 -72.642334
v -34.286369 88.100510 -72.568588
v -34.274689 88.100510 -72.494850
v -34.240791 88.100510 -72.428322
v -34.187996 88.100510 -72.375526
v -34.121475 88.100510 -72.341629
v -34.047729 88.100510 -72.329956
v -33.973984 88.100510 -72.341629
v -33.907463 88.100510 -72.375526
v -33.854668 88.100510 -72.428322
v -33.820770 88.100510 -72.494850
v -33.809090 88.100510 -72.568588
v -33.820770 88.100510 -72.642334
v -33.854668 88.100510 -72.708862
v -33.907463 88.100510 -72.761650
v -33.973988 88.100510 -72.795547
v -34.047729 88.100510 -72.807228
v -34.121475 102.984535 -72.795547
v -34.188000 102.984535 -72.761650
v -34.240791 102.984535 -72.708862
v -34.274689 102.984535 -72.642334
v -34.286369 102.984535 -72.568588
v -34.274689 102.984535 -72.494850
v -34.240795 102.984535 -72.428322
v -34.188000 102.984535 -72.375526
v -34.121475 102.984535 -72.341629
v -34.047729 102.984535 -72.329956
v -33.973988 102.984535 -72.341629
v -33.907463 102.984535 -72.375526
v -33.854668 102.984535 -72.428322
v -33.820770 102.984535 -72.494850
v -33.809090 102.984535 -72.568588
v -33.820770 102.984535 -72.642334
v -33.854668 102.984535 -72.708862
v -33.907463 102.984535 -72.761650
v -33.973991 102.984535 -72.795547
v -34.047729 102.984535 -72.807228
v -34.047729 88.100510 -72.568588
v -34.047729 102.984535 -72.568588
v -32.976395 102.136223 -71.706268
v -32.976395 103.513893 -72.437294
v -32.976395 102.432808 -71.706268
v -32.976395 103.810471 -72.437294
v -38.661846 102.432808 -71.706268
v -37.300854 106.956612 -77.138596
v -37.959133 107.074814 -77.634705
v -44.347298 102.432808 -71.623001
v -44.347298 103.810471 -76.053543
v -43.481567 108.366890 -82.955208
v -45.633476 109.015923 -85.089684
v -46.160629 105.641258 -72.046631
v -46.160629 107.018921 -77.808586
v -46.782921 109.290665 -83.411293
v -48.075897 109.015923 -87.800285
v -51.430733 110.825050 -88.631546
v -51.846085 108.710175 -72.482765
v -51.846085 108.710175 -76.913315
v -52.468369 111.965233 -78.897385
v -53.761345 114.628983 -83.286377
v -53.761345 117.409096 -87.748978
v -51.846085 108.413589 -72.482765
v -51.846085 108.413589 -76.913315
v -52.468369 111.668648 -78.897385
v -52.402527 112.159042 -87.800285
v -53.192230 118.018646 -87.623871
v -46.160629 105.344666 -72.129906
v -46.160629 106.722343 -77.891861
v -46.782921 108.994087 -83.411293
v -48.075897 108.719337 -87.800285
v -51.430733 110.528465 -88.631546
v -44.347298 102.136223 -71.706268
v -44.347298 103.513893 -76.136818
v -43.481567 108.070312 -82.955208
v -45.633476 108.719337 -85.089684
v -38.661846 102.136223 -71.706268
v -37.300854 106.660042 -77.138596
v -37.959133 106.778236 -77.634705
vn -0.3090 -0.0000 -0.9511
vn -0.5878 -0.0000 -0.8090
vn -0.8090 -0.0000 -0.5878
vn -0.9511 -0.0000 -0.3090
vn -1.0000 -0.0000 -0.0000
vn -0.9511 -0.0000 0.3090
vn -0.8090 -0.0000 0.5878
vn -0.5878 -0.0000 0.8090
vn -0.3090 -0.0000 0.9511
vn -0.0000 -0.0000 1.0000
vn 0.3090 -0.0000 0.9511
vn 0.5878 -0.0000 0.8090
vn 0.8090 -0.0000 0.5878
vn 0.9511 -0.0000 0.3090
vn 1.0000 -0.0000 -0.0000
vn 0.9511 -0.0000 -0.3090
vn 0.8090 -0.0000 -0.5878
vn 0.5878 -0.0000 -0.8090
vn 0.3090 -0.0000 -0.9511
vn -0.0000 -0.0000 -1.0000
vn -0.0001 -1.0000 -0.0000
vn -0.0000 -1.0000 -0.0000
vn 0.0001 -1.0000 -0.0000
vn 0.0001 1.0000 -0.0000
vn -0.0000 1.0000 -0.0000
vn -0.0001 1.0000 -0.0000
vn -0.0000 0.4687 0.8833
vn -0.0875 0.7241 0.6841
vn -0.1588 0.8090 0.5659
vn -0.2014 0.7782 0.5949
vn 0.1087 0.8683 0.4839
vn 0.3069 0.9088 0.2826
vn -0.2888 0.8114 0.5082
vn -0.0148 0.8851 0.4651
vn 0.6227 0.7592 0.1894
vn 0.5450 0.7765 0.3163
vn 0.5203 0.8477 0.1035
vn 0.1696 0.9845 -0.0450
vn 0.5503 0.7965 -0.2505
vn 0.3865 0.9141 0.1223
vn 0.3189 0.8470 0.4252
vn 0.5485 0.7520 0.3656
vn 0.7547 0.6461 0.1140
vn 0.7162 0.6770 -0.1695
vn 0.9333 0.3049 0.1899
vn -0.9913 -0.0000 0.1315
vn -0.9990 -0.0000 0.0437
vn -0.9335 -0.3585 -0.0091
vn -0.9968 -0.0000 0.0805
vn -0.9382 -0.3263 -0.1151
vn -0.9190 -0.3891 -0.0637
vn 0.1615 0.0514 -0.9855
vn -0.8658 -0.2196 -0.4497
vn -0.3244 -0.8470 -0.4211
vn -0.5450 -0.7755 -0.3186
vn -0.3882 -0.9134 -0.1224
vn -0.6230 -0.7590 -0.1893
vn -0.4909 -0.8345 -0.2503
vn -0.4667 -0.8760 -0.1218
vn -0.5995 -0.7927 -0.1107
vn -0.5759 -0.7833 0.2340
vn -0.7188 -0.0761 -0.6911
vn -0.6140 -0.6169 0.4924
vn -0.1033 -0.8680 -0.4857
vn -0.3019 -0.9104 -0.2831
vn 0.0187 -0.8826 -0.4697
vn -0.1696 -0.9845 0.0450
vn 0.1629 -0.8087 -0.5653
vn 0.2059 -0.7777 -0.5939
vn 0.2928 -0.8077 -0.5117
vn 0.0875 -0.7241 -0.6841
vn -0.0000 -0.4687 -0.8833
vn -0.0597 -0.1469 0.9873
vn -0.0601 -0.1470 0.9873
vn -0.3999 -0.2487 0.8822
vn -0.3542 -0.0000 -0.9352
vn -0.3820 -0.2498 0.8897
vn -0.2418 -0.2578 0.9355
vn -0.0792 -0.0056 0.9968
vn -0.0765 -0.0000 0.9971
vn -0.0807 -0.2694 0.9596
vn -0.2307 -0.2576 0.9383
vn 0.0071 -0.0047 1.0000
vn 0.0073 -0.0000 1.0000
vn 0.2405 -0.0000 -0.9706
vn 0.4861 -0.0000 -0.8739
vn 0.5676 -0.0000 -0.8233
vn 0.7360 -0.0000 -0.6770
vn 0.7257 -0.0000 -0.6880
vn 0.7154 -0.0000 -0.6987
vn 0.6836 -0.0000 -0.7298
vn 0.6867 -0.0000 -0.7269
vn 0.6963 -0.0000 -0.7177
vn 0.6974 -0.0000 -0.7167
vn 0.7244 -0.0000 -0.6894
vn 0.7270 -0.0000 -0.6866
vt 0.375000 0.312500
vt 0.387500 0.312500
vt 0.375000 0.687500
vt 0.387500 0.687500
vt 0.400000 0.312500
vt 0.400000 0.687500
vt 0.412500 0.312500
vt 0.412500 0.687500
vt 0.425000 0.312500
vt 0.425000 0.687500
vt 0.437500 0.312500
vt 0.437500 0.687500
vt 0.450000 0.312500
vt 0.450000 0.687500
vt 0.462500 0.312500
vt 0.462500 0.687500
vt 0.475000 0.312500
vt 0.475000 0.687500
vt 0.487500 0.312500
vt 0.487500 0.687500
vt 0.500000 0.312500
vt 0.500000 0.687500
vt 0.512500 0.312500
vt 0.512500 0.687500
vt 0.525000 0.312500
vt 0.525000 0.687500
vt 0.537500 0.312500
vt 0.537500 0.687500
vt 0.550000 0.312500
vt 0.550000 0.687500
vt 0.562500 0.312500
vt 0.562500 0.687500
vt 0.575000 0.312500
vt 0.575000 0.687500
vt 0.587500 0.312500
vt 0.587500 0.687500
vt 0.600000 0.312500
vt 0.600000 0.687500
vt 0.612500 0.312500
vt 0.612500 0.687500
vt 0.625000 0.312500
vt 0.625000 0.687500
vt 0.626409 0.064408
vt 0.648603 0.107966
vt 0.500000 0.156250
vt 0.591842 0.029841
vt 0.548284 0.007647
vt 0.500000 -0.000000
vt 0.451716 0.007647
vt 0.408159 0.029841
vt 0.373591 0.064409
vt 0.351397 0.107966
vt 0.343750 0.156250
vt 0.351397 0.204534
vt 0.373591 0.248091
vt 0.408159 0.282659
vt 0.451716 0.304853
vt 0.548284 0.304853
vt 0.591841 0.282659
vt 0.626409 0.248091
vt 0.648603 0.204534
vt 0.656250 0.156250
vt 0.648603 0.892034
vt 0.626409 0.935591
vt 0.500000 0.843750
vt 0.591841 0.970159
vt 0.548284 0.992353
vt 0.500000 1.000000
vt 0.451716 0.992353
vt 0.408159 0.970159
vt 0.373591 0.935591
vt 0.351397 0.892034
vt 0.343750 0.843750
vt 0.351397 0.795466
vt 0.373591 0.751909
vt 0.408159 0.717341
vt 0.451716 0.695147
vt 0.548284 0.695147
vt 0.591842 0.717341
vt 0.626409 0.751908
vt 0.648603 0.795466
vt 0.656250 0.843750
vt 0.375000 0.000000
vt 0.437500 0.000000
vt 0.375000 0.250000
vt 0.437500 0.250000
vt 0.437500 0.375000
vt 0.375000 0.375000
vt 0.500000 0.375000
vt 0.375000 0.437500
vt 0.437500 0.437500
vt 0.500000 0.437500
vt 0.562500 0.375000
vt 0.562500 0.437500
vt 0.375000 0.500000
vt 0.437500 0.500000
vt 0.500000 0.500000
vt 0.562500 0.500000
vt 0.625000 0.437500
vt 0.625000 0.500000
vt 0.375000 0.750000
vt 0.437500 0.750000
vt 0.500000 0.750000
vt 0.562500 0.750000
vt 0.625000 0.750000
vt 0.437500 0.812500
vt 0.375000 0.812500
vt 0.500000 0.812500
vt 0.562500 0.812500
vt 0.625000 0.812500
vt 0.437500 0.875000
vt 0.375000 0.875000
vt 0.500000 0.875000
vt 0.562500 0.875000
vt 0.375000 0.937500
vt 0.437500 0.937500
vt 0.500000 0.937500
vt 0.437500 1.000000
vt 0.375000 1.000000
vt 0.875000 0.000000
vt 0.875000 0.250000
vt 0.812500 0.000000
vt 0.812500 0.250000
vt 0.187500 0.000000
vt 0.187500 0.250000
vt 0.125000 0.000000
vt 0.125000 0.250000
vt 0.250000 0.000000
vt 0.250000 0.250000
vt 0.312500 0.000000
vt 0.312500 0.250000
s 1
usemtl phong11SG.001
f 1/1/1 2/2/2 21/3/1
f 21/3/1 2/2/2 22/4/2
f 2/2/2 3/5/3 22/4/2
f 22/4/2 3/5/3 23/6/3
f 3/5/3 4/7/4 23/6/3
f 23/6/3 4/7/4 24/8/4
f 4/7/4 5/9/5 24/8/4
f 24/8/4 5/9/5 25/10/5
f 5/9/5 6/11/6 25/10/5
f 25/10/5 6/11/6 26/12/6
f 6/11/6 7/13/7 26/12/6
f 26/12/6 7/13/7 27/14/7
f 7/13/7 8/15/8 27/14/7
f 27/14/7 8/15/8 28/16/8
f 8/15/8 9/17/9 28/16/8
f 28/16/8 9/17/9 29/18/9
f 9/17/9 10/19/10 29/18/9
f 29/18/9 10/19/10 30/20/10
f 10/19/10 11/21/11 30/20/10
f 30/20/10 11/21/11 31/22/11
f 11/21/11 12/23/12 31/22/11
f 31/22/11 12/23/12 32/24/12
f 12/23/12 13/25/13 32/24/12
f 32/24/12 13/25/13 33/26/13
f 13/25/13 14/27/14 33/26/13
f 33/26/13 14/27/14 34/28/14
f 14/27/14 15/29/15 34/28/14
f 34/28/14 15/29/15 35/30/15
f 15/29/15 16/31/16 35/30/15
f 35/30/15 16/31/16 36/32/16
f 16/31/16 17/33/17 36/32/16
f 36/32/16 17/33/17 37/34/17
f 17/33/17 18/35/18 37/34/17
f 37/34/17 18/35/18 38/36/18
f 18/35/18 19/37/19 38/36/18
f 38/36/18 19/37/19 39/38/19
f 19/37/19 20/39/20 39/38/19
f 39/38/19 20/39/20 40/40/20
f 20/39/20 1/41/1 40/40/20
f 40/40/20 1/41/1 21/42/1
f 2/43/21 1/44/21 41/45/22
f 3/46/22 2/43/21 41/45/22
f 4/47/22 3/46/22 41/45/22
f 5/48/22 4/47/22 41/45/22
f 6/49/22 5/48/22 41/45/22
f 7/50/22 6/49/22 41/45/22
f 8/51/23 7/50/22 41/45/22
f 9/52/22 8/51/23 41/45/22
f 10/53/22 9/52/22 41/45/22
f 11/54/23 10/53/22 41/45/22
f 12/55/22 11/54/23 41/45/22
f 13/56/22 12/55/22 41/45/22
f 14/57/22 13/56/22 41/45/22
f 15/21/22 14/57/22 41/45/22
f 16/58/22 15/21/22 41/45/22
f 17/59/22 16/58/22 41/45/22
f 18/60/23 17/59/22 41/45/22
f 19/61/23 18/60/23 41/45/22
f 20/62/22 19/61/23 41/45/22
f 1/44/21 20/62/22 41/45/22
f 21/63/24 22/64/25 42/65/25
f 22/64/25 23/66/25 42/65/25
f 23/66/25 24/67/25 42/65/25
f 24/67/25 25/68/25 42/65/25
f 25/68/25 26/69/24 42/65/25
f 26/69/24 27/70/24 42/65/25
f 27/70/24 28/71/25 42/65/25
f 28/71/25 29/72/25 42/65/25
f 29/72/25 30/73/26 42/65/25
f 30/73/26 31/74/26 42/65/25
f 31/74/26 32/75/25 42/65/25
f 32/75/25 33/76/25 42/65/25
f 33/76/25 34/77/25 42/65/25
f 34/77/25 35/22/25 42/65/25
f 35/22/25 36/78/26 42/65/25
f 36/78/26 37/79/26 42/65/25
f 37/79/26 38/80/24 42/65/25
f 38/80/24 39/81/24 42/65/25
f 39/81/24 40/82/24 42/65/25
f 40/82/24 21/63/24 42/65/25
usemtl phong12SG
f 43/83/15 44/84/15 45/85/15
f 45/85/15 44/84/15 46/86/15
f 45/85/27 46/86/28 47/1/29
f 47/1/29 46/86/28 48/11/30
f 48/11/30 51/87/31 47/1/29
f 47/1/29 51/87/31 50/88/32
f 48/11/30 49/21/33 51/87/31
f 49/21/33 52/89/34 51/87/31
f 50/88/32 51/87/31 54/90/35
f 54/90/35 51/87/31 55/91/36
f 51/87/31 52/89/34 55/91/36
f 55/91/36 52/89/34 56/92/37
f 52/89/34 53/93/38 56/92/37
f 56/92/37 53/93/38 57/94/39
f 54/90/35 55/91/36 59/95/40
f 59/95/40 55/91/36 60/96/41
f 56/92/37 61/97/42 55/91/36
f 55/91/36 61/97/42 60/96/41
f 57/94/39 62/98/43 56/92/37
f 56/92/37 62/98/43 61/97/42
f 57/94/39 58/99/44 62/98/43
f 62/98/43 58/99/44 63/100/45
f 59/95/5 60/96/46 64/101/5
f 64/101/5 60/96/46 65/102/47
f 61/97/48 66/103/49 60/96/46
f 60/96/46 66/103/49 65/102/47
f 66/103/49 61/97/48 67/104/50
f 61/97/48 62/98/51 67/104/50
f 68/105/52 67/104/50 63/100/53
f 62/98/51 63/100/53 67/104/50
f 65/102/54 70/106/55 64/101/56
f 64/101/56 70/106/55 69/107/57
f 65/102/54 66/103/58 70/106/55
f 70/106/55 66/103/58 71/108/59
f 66/103/58 67/104/60 71/108/59
f 71/108/59 67/104/60 72/109/61
f 68/105/62 73/110/63 67/104/60
f 67/104/60 73/110/63 72/109/61
f 70/106/55 75/111/64 69/107/57
f 69/107/57 75/111/64 74/112/65
f 71/108/59 76/113/66 70/106/55
f 70/106/55 76/113/66 75/111/64
f 72/109/61 77/114/67 71/108/59
f 71/108/59 77/114/67 76/113/66
f 74/112/65 75/111/64 78/115/68
f 78/115/68 75/111/64 79/116/69
f 79/116/69 75/111/64 80/117/70
f 75/111/64 76/113/66 80/117/70
f 79/116/69 44/118/71 78/115/68
f 78/115/68 44/118/71 43/119/72
f 68/120/73 63/121/74 73/122/75
f 73/122/75 63/121/74 58/123/76
f 69/124/77 54/125/78 64/126/79
f 64/126/79 54/125/78 59/127/80
f 74/128/81 50/129/82 69/124/77
f 69/124/77 50/129/82 54/125/78
f 74/128/81 78/130/83 50/129/82
f 50/129/82 78/130/83 47/131/84
f 78/130/83 43/83/10 47/131/84
f 47/131/84 43/83/10 45/85/10
f 58/99/85 57/94/86 73/122/85
f 73/122/85 57/94/86 72/109/87
f 44/118/88 79/116/89 46/86/88
f 46/86/88 79/116/89 48/11/90
f 79/116/89 80/117/91 48/11/90
f 48/11/90 80/117/91 49/21/92
f 80/117/91 76/113/93 49/21/92
f 49/21/92 76/113/93 52/89/94
f 76/113/93 77/114/95 52/89/94
f 52/89/94 77/114/95 53/93/96
f 77/114/95 72/109/87 53/93/96
f 72/109/87 57/94/86 53/93/96
f 81/1/1 82/2/2 101/3/1
f 101/3/1 82/2/2 102/4/2
f 82/2/2 83/5/3 102/4/2
f 102/4/2 83/5/3 103/6/3
f 83/5/3 84/7/4 103/6/3
f 103/6/3 84/7/4 104/8/4
f 84/7/4 85/9/5 104/8/4
f 104/8/4 85/9/5 105/10/5
f 85/9/5 86/11/6 105/10/5
f 105/10/5 86/11/6 106/12/6
f 86/11/6 87/13/7 106/12/6
f 106/12/6 87/13/7 107/14/7
f 87/13/7 88/15/8 107/14/7
f 107/14/7 88/15/8 108/16/8
f 88/15/8 89/17/9 108/16/8
f 108/16/8 89/17/9 109/18/9
f 89/17/9 90/19/10 109/18/9
f 109/18/9 90/19/10 110/20/10
f 90/19/10 91/21/11 110/20/10
f 110/20/10 91/21/11 111/22/11
f 91/21/11 92/23/12 111/22/11
f 111/22/11 92/23/12 112/24/12
f 92/23/12 93/25/13 112/24/12
f 112/24/12 93/25/13 113/26/13
f 93/25/13 94/27/14 113/26/13
f 113/26/13 94/27/14 114/28/14
f 94/27/14 95/29/15 114/28/14
f 114/28/14 95/29/15 115/30/15
f 95/29/15 96/31/16 115/30/15
f 115/30/15 96/31/16 116/32/16
f 96/31/16 97/33/17 116/32/16
f 116/32/16 97/33/17 117/34/17
f 97/33/17 98/35/18 117/34/17
f 117/34/17 98/35/18 118/36/18
f 98/35/18 99/37/19 118/36/18
f 118/36/18 99/37/19 119/38/19
f 99/37/19 100/39/20 119/38/19
f 119/38/19 100/39/20 120/40/20
f 100/39/20 81/41/1 120/40/20
f 120/40/20 81/41/1 101/42/1
f 82/43/21 81/44/21 121/45/22
f 83/46/22 82/43/21 121/45/22
f 84/47/22 83/46/22 121/45/22
f 85/48/22 84/47/22 121/45/22
f 86/49/22 85/48/22 121/45/22
f 87/50/22 86/49/22 121/45/22
f 88/51/23 87/50/22 121/45/22
f 89/52/22 88/51/23 121/45/22
f 90/53/22 89/52/22 121/45/22
f 91/54/23 90/53/22 121/45/22
f 92/55/22 91/54/23 121/45/22
f 93/56/22 92/55/22 121/45/22
f 94/57/22 93/56/22 121/45/22
f 95/21/22 94/57/22 121/45/22
f 96/58/22 95/21/22 121/45/22
f 97/59/22 96/58/22 121/45/22
f 98/60/23 97/59/22 121/45/22
f 99/61/23 98/60/23 121/45/22
f 100/62/22 99/61/23 121/45/22
f 81/44/21 100/62/22 121/45/22
f 101/63/24 102/64/25 122/65/25
f 102/64/25 103/66/25 122/65/25
f 103/66/25 104/67/25 122/65/25
f 104/67/25 105/68/25 122/65/25
f 105/68/25 106/69/24 122/65/25
f 106/69/24 107/70/24 122/65/25
f 107/70/24 108/71/25 122/65/25
f 108/71/25 109/72/25 122/65/25
f 109/72/25 110/73/26 122/65/25
f 110/73/26 111/74/26 122/65/25
f 111/74/26 112/75/25 122/65/25
f 112/75/25 113/76/25 122/65/25
f 113/76/25 114/77/25 122/65/25
f 114/77/25 115/22/25 122/65/25
f 115/22/25 116/78/26 122/65/25
f 116/78/26 117/79/26 122/65/25
f 117/79/26 118/80/24 122/65/25
f 118/80/24 119/81/24 122/65/25
f 119/81/24 120/82/24 122/65/25
f 120/82/24 101/63/24 122/65/25
f 123/83/15 124/84/15 125/85/15
f 125/85/15 124/84/15 126/86/15
f 125/85/27 126/86/28 127/1/29
f 127/1/29 126/86/28 128/11/30
f 128/11/30 131/87/31 127/1/29
f 127/1/29 131/87/31 130/88/32
f 128/11/30 129/21/33 131/87/31
f 129/21/33 132/89/34 131/87/31
f 130/88/32 131/87/31 134/90/35
f 134/90/35 131/87/31 135/91/36
f 131/87/31 132/89/34 135/91/36
f 135/91/36 132/89/34 136/92/37
f 132/89/34 133/93/38 136/92/37
f 136/92/37 133/93/38 137/94/39
f 134/90/35 135/91/36 139/95/40
f 139/95/40 135/91/36 140/96/41
f 136/92/37 141/97/42 135/91/36
f 135/91/36 141/97/42 140/96/41
f 137/94/39 142/98/43 136/92/37
f 136/92/37 142/98/43 141/97/42
f 137/94/39 138/99/44 142/98/43
f 142/98/43 138/99/44 143/100/45
f 139/95/5 140/96/46 144/101/5
f 144/101/5 140/96/46 145/102/47
f 141/97/48 146/103/49 140/96/46
f 140/96/46 146/103/49 145/102/47
f 146/103/49 141/97/48 147/104/50
f 141/97/48 142/98/51 147/104/50
f 148/105/52 147/104/50 143/100/53
f 142/98/51 143/100/53 147/104/50
f 145/102/54 150/106/55 144/101/56
f 144/101/56 150/106/55 149/107/57
f 145/102/54 146/103/58 150/106/55
f 150/106/55 146/103/58 151/108/59
f 146/103/58 147/104/60 151/108/59
f 151/108/59 147/104/60 152/109/61
f 148/105/62 153/110/63 147/104/60
f 147/104/60 153/110/63 152/109/61
f 150/106/55 155/111/64 149/107/57
f 149/107/57 155/111/64 154/112/65
f 151/108/59 156/113/66 150/106/55
f 150/106/55 156/113/66 155/111/64
f 152/109/61 157/114/67 151/108/59
f 151/108/59 157/114/67 156/113/66
f 154/112/65 155/111/64 158/115/68
f 158/115/68 155/111/64 159/116/69
f 159/116/69 155/111/64 160/117/70
f 155/111/64 156/113/66 160/117/70
f 159/116/69 124/118/71 158/115/68
f 158/115/68 124/118/71 123/119/72
f 148/120/73 143/121/74 153/122/75
f 153/122/75 143/121/74 138/123/76
f 149/124/77 134/125/78 144/126/79
f 144/126/79 134/125/78 139/127/80
f 154/128/81 130/129/82 149/124/77
f 149/124/77 130/129/82 134/125/78
f 154/128/81 158/130/83 130/129/82
f 130/129/82 158/130/83 127/131/84
f 158/130/83 123/83/10 127/131/84
f 127/131/84 123/83/10 125/85/10
f 138/99/85 137/94/86 153/122/85
f 153/122/85 137/94/86 152/109/87
f 124/118/88 159/116/89 126/86/88
f 126/86/88 159/116/89 128/11/90
f 159/116/89 160/117/91 128/11/90
f 128/11/90 160/117/91 129/21/92
f 160/117/91 156/113/93 129/21/92
f 129/21/92 156/113/93 132/89/94
f 156/113/93 157/114/95 132/89/94
f 132/89/94 157/114/95 133/93/96
f 157/114/95 152/109/87 133/93/96
f 152/109/87 137/94/86 133/93/96
