# Blender 3.6.9
# www.blender.org
mtllib Puerta.mtl
o Puerta
v 0.000002 1.125292 1.245195
v 0.000002 13.426281 1.245195
v 0.000003 1.125292 9.412310
v 0.000003 13.426281 9.412310
v 0.000003 14.551572 10.657505
v 0.000003 -0.000000 10.657505
v 0.000002 -0.000000 -0.000000
v 0.000002 14.551572 -0.000000
v -0.577478 7.271691 10.218362
v 0.000003 5.511132 10.657505
v 0.000002 5.511132 -0.000000
v 0.000003 5.511132 9.412310
v 0.000002 5.511132 1.245195
v -0.577478 5.511132 10.218362
v -0.577478 7.268630 9.779219
v 0.000003 7.274751 10.657505
v 0.000002 7.277082 -0.000000
v 0.000003 7.266073 9.412310
v 0.000002 7.266073 1.245195
v 0.000003 13.757858 9.779219
v 0.000003 0.793714 9.779219
v 0.000002 0.793714 0.878287
v 0.000002 13.757858 0.878287
v 0.000002 5.511132 0.878287
v 0.000003 5.511132 9.779219
v 0.000003 7.268630 9.779219
v 0.000002 7.269317 0.878287
v 0.000003 0.396857 10.218362
v 0.000002 0.396857 0.439143
v 0.000002 5.511132 0.439143
v 0.000003 5.511132 10.218362
v 0.000003 7.271691 10.218362
v 0.000002 7.273200 0.439143
v 0.000003 14.154715 10.218362
v 0.000002 14.154715 0.439143
v -0.577478 5.511132 9.779219
v 1.046299 -0.000000 10.657505
v 1.046299 14.551572 10.657505
v 1.046298 -0.000000 -0.000000
v 1.046298 14.551572 -0.000000
v 1.046298 5.511132 -0.000000
v 1.046299 5.511132 10.657505
v 1.046298 7.277082 -0.000000
v 1.046299 7.274751 10.657505
v -0.387603 7.271691 10.218362
v -0.387603 5.511132 10.218362
v -0.387603 5.511132 9.779219
v -0.387603 7.268630 9.779219
v 0.000003 7.086878 10.657505
v 0.000003 5.699005 10.657505
v 0.000002 7.088432 -0.000000
v 0.000002 5.699782 -0.000000
v 0.000003 7.081092 9.412310
v 0.000003 5.696112 9.412310
v 0.000002 7.081092 1.245195
v 0.000002 5.696112 1.245195
v 0.000002 7.083255 0.878287
v 0.000002 5.697194 0.878287
v 0.000003 5.696965 9.779219
v 0.000003 7.082797 9.779219
v 0.000002 7.085844 0.439143
v 0.000002 5.698488 0.439143
v 0.000003 5.697985 10.218362
v 0.000003 7.084838 10.218362
v -0.577478 5.697985 10.218362
v -0.577478 7.084838 10.218362
v -0.577478 5.696965 9.779219
v -0.577478 7.082797 9.779219
v 1.046299 7.086878 10.657505
v 1.046299 5.699005 10.657505
v 1.046298 7.088432 -0.000000
v 1.046298 5.699782 -0.000000
v -0.387603 7.084838 10.218362
v -0.387603 5.697985 10.218362
v -0.387603 5.696965 9.779219
v -0.387603 7.082797 9.779219
v 0.000002 -0.000000 4.766718
v 0.000003 -0.000000 5.877817
v 0.000003 14.551572 5.877817
v 0.000002 14.551572 4.766718
v 0.000002 1.125292 5.181784
v 0.000002 1.125292 5.462752
v 0.000002 13.426281 5.462752
v 0.000002 13.426281 5.181784
v 0.000002 5.511132 5.462752
v 0.000002 5.511132 5.181784
v 0.000002 7.266073 5.462752
v 0.000002 7.266073 5.181784
v 0.000002 13.757858 5.585055
v 0.000002 13.757858 5.059481
v 0.000002 0.793714 5.059481
v 0.000002 0.793714 5.585055
v 0.000002 14.154715 5.731436
v 0.000002 14.154715 4.913100
v 0.000002 0.396857 4.913100
v 0.000002 0.396857 5.731436
v 1.046298 14.551572 5.877817
v 1.046298 14.551572 4.766718
v 1.046298 -0.000000 5.877817
v 1.046298 -0.000000 4.766718
v 0.000002 5.696112 5.462752
v 0.000002 5.696112 5.181784
v 0.000002 7.081092 5.462752
v 0.000002 7.081092 5.181784
v 2.092593 1.125292 1.245195
v 2.092593 13.426281 1.245195
v 2.092594 1.125292 9.412310
v 2.092594 13.426281 9.412310
v 2.092594 14.551572 10.657505
v 2.092594 -0.000000 10.657505
v 2.092593 -0.000000 -0.000000
v 2.092593 14.551572 -0.000000
v 2.670075 7.271691 10.218362
v 2.092594 5.511132 10.657505
v 2.092593 5.511132 -0.000000
v 2.092594 5.511132 9.412310
v 2.092593 5.511132 1.245195
v 2.670075 5.511132 10.218362
v 2.670075 7.268630 9.779219
v 2.092594 7.274751 10.657505
v 2.092593 7.277082 -0.000000
v 2.092594 7.266073 9.412310
v 2.092593 7.266073 1.245195
v 2.092594 13.757858 9.779219
v 2.092594 0.793714 9.779219
v 2.092593 0.793714 0.878286
v 2.092593 13.757858 0.878286
v 2.092593 5.511132 0.878286
v 2.092594 5.511132 9.779219
v 2.092594 7.268630 9.779219
v 2.092593 7.269317 0.878286
v 2.092594 0.396857 10.218362
v 2.092593 0.396857 0.439143
v 2.092593 5.511132 0.439143
v 2.092594 5.511132 10.218362
v 2.092594 7.271691 10.218362
v 2.092593 7.273200 0.439143
v 2.092594 14.154715 10.218362
v 2.092593 14.154715 0.439143
v 2.670075 5.511132 9.779219
v 2.480200 7.271691 10.218362
v 2.480200 5.511132 10.218362
v 2.480200 5.511132 9.779219
v 2.480200 7.268630 9.779219
v 2.092594 7.086878 10.657505
v 2.092594 5.699005 10.657505
v 2.092593 7.088432 -0.000000
v 2.092593 5.699782 -0.000000
v 2.092594 7.081092 9.412310
v 2.092594 5.696112 9.412310
v 2.092593 7.081092 1.245195
v 2.092593 5.696112 1.245195
v 2.092593 7.083255 0.878286
v 2.092593 5.697194 0.878286
v 2.092594 5.696965 9.779219
v 2.092594 7.082797 9.779219
v 2.092593 7.085844 0.439143
v 2.092593 5.698488 0.439143
v 2.092594 5.697985 10.218362
v 2.092594 7.084838 10.218362
v 2.670075 5.697985 10.218362
v 2.670075 7.084838 10.218362
v 2.670075 5.696965 9.779219
v 2.670075 7.082797 9.779219
v 2.480200 7.084838 10.218362
v 2.480200 5.697985 10.218362
v 2.480200 5.696965 9.779219
v 2.480200 7.082797 9.779219
v 2.092594 -0.000000 4.766718
v 2.092594 -0.000000 5.877817
v 2.092594 14.551572 5.877817
v 2.092594 14.551572 4.766718
v 2.092594 1.125292 5.181784
v 2.092594 1.125292 5.462752
v 2.092594 13.426281 5.462752
v 2.092594 13.426281 5.181784
v 2.092594 5.511132 5.462752
v 2.092594 5.511132 5.181784
v 2.092594 7.266073 5.462752
v 2.092594 7.266073 5.181784
v 2.092594 13.757858 5.585055
v 2.092594 13.757858 5.059481
v 2.092594 0.793714 5.059481
v 2.092594 0.793714 5.585055
v 2.092594 14.154715 5.731436
v 2.092594 14.154715 4.913100
v 2.092594 0.396857 4.913100
v 2.092594 0.396857 5.731436
v 2.092594 5.696112 5.462752
v 2.092594 5.696112 5.181784
v 2.092594 7.081092 5.462752
v 2.092594 7.081092 5.181784
vn -0.0000 -0.0000 1.0000
vn -0.0000 -1.0000 -0.0000
vn -1.0000 -0.0000 -0.0000
vn -0.0000 -0.0000 -1.0000
vn -0.0000 1.0000 -0.0070
vn -0.0000 1.0000 -0.0000
vn -0.0000 -1.0000 0.0046
vn 1.0000 -0.0000 -0.0000
vn -0.0000 1.0000 -0.0023
vt 1.115984 0.511204
vt 1.115984 1.011275
vt 1.003149 1.011275
vt 1.003149 0.511204
vt 1.000000 0.237920
vt 1.500000 0.237920
vt 1.500000 -0.209344
vt 1.000000 -0.209344
vt 0.960389 0.389982
vt 0.960389 0.038523
vt 1.001594 0.011250
vt 1.001594 0.389982
vt 0.462593 0.038523
vt 0.042799 0.038523
vt 0.001594 0.011250
vt 0.448858 0.011250
vt 0.539378 0.983978
vt 0.960389 0.983978
vt 1.001594 1.011250
vt 0.553113 1.011250
vt 0.042799 0.511073
vt 0.042799 0.983978
vt 0.001594 1.011250
vt 0.001594 0.511340
vt 0.042799 0.389982
vt 0.001594 0.389982
vt 0.960389 0.402822
vt 1.001594 0.402892
vt 1.115984 0.011275
vt 1.115984 0.390006
vt 1.003149 0.390006
vt 1.003149 0.011275
vt 0.960389 0.510969
vt 1.001594 0.511179
vt 0.042799 0.498197
vt 0.001594 0.498375
vt 0.382629 0.581302
vt 0.382629 0.445780
vt 0.084198 0.445780
vt 0.084198 0.581302
vt 0.319999 0.494319
vt 0.319999 0.507032
vt -0.049374 0.507032
vt -0.049374 0.494319
vt 1.115984 0.498293
vt 1.003149 0.498293
vt 0.382629 0.670328
vt 0.382629 0.712330
vt 0.084198 0.712330
vt 0.084198 0.670328
vt 0.118431 0.497871
vt 0.118431 0.510583
vt 0.084004 0.510806
vt 0.084004 0.498020
vt 0.884756 0.933919
vt 0.884756 0.510583
vt 0.919184 0.510759
vt 0.919184 0.956706
vt 0.884756 0.402694
vt 0.884756 0.389982
vt 0.919184 0.389982
vt 0.919184 0.402752
vt 0.118431 0.088582
vt 0.118431 0.389982
vt 0.084004 0.389982
vt 0.084004 0.065795
vt 0.118431 0.933919
vt 0.084004 0.956706
vt 0.514167 0.933919
vt 0.525643 0.956706
vt 0.487804 0.088582
vt 0.476328 0.065795
vt 0.884756 0.088582
vt 0.919184 0.065795
vt 0.014035 0.356408
vt 0.014035 0.314406
vt 0.149557 0.314406
vt 0.149557 0.356639
vt 0.004889 0.498590
vt 0.004889 0.511555
vt -0.108813 0.511555
vt -0.108813 0.498590
vt 0.004889 0.011466
vt 0.004889 0.390197
vt -0.108813 0.390197
vt -0.108813 0.011466
vt 0.004889 1.011466
vt -0.108813 1.011466
vt 0.382629 0.356639
vt 0.382629 0.314406
vt 0.084198 0.314406
vt 0.084198 0.356639
vt 0.991836 0.356639
vt 0.991836 0.314406
vt 0.991836 0.445780
vt 0.991836 0.581302
vt 0.991836 0.670328
vt 0.991836 0.712330
vt 0.991836 0.315098
vt 0.991836 0.357100
vt 0.382629 0.357100
vt 0.382629 0.315098
vt 0.991836 0.670097
vt 0.382629 0.670097
vt 0.149557 0.670097
vt 0.014035 0.669636
vt 0.084198 0.670097
vt 0.004889 0.403161
vt -0.108813 0.403161
vt 0.014035 0.711638
vt 0.149557 0.712330
vt 0.275385 0.537357
vt 0.275385 0.383626
vt 0.341899 0.383739
vt 0.341899 0.537584
vt 0.084004 0.402768
vt 0.042799 0.402857
vt 0.884756 0.497871
vt 0.919184 0.497988
vt 0.118431 0.402694
vt 0.084198 0.357100
vt 0.084198 0.315098
vt 0.456291 0.383965
vt 0.456291 0.537697
vt 0.309821 0.537697
vt 0.309821 0.383965
vt 1.115984 0.402917
vt 1.003149 0.402917
vt 0.001594 0.402946
vt 0.960389 0.498128
vt 1.001594 0.498269
vt 0.708246 0.052676
vt 0.708246 -0.042560
vt 0.749451 -0.042490
vt 0.749451 0.052816
vt 0.346361 0.399141
vt 0.346361 0.494318
vt 0.319998 0.494318
vt 0.319998 0.399141
vt 0.346361 0.386428
vt 0.319998 0.386428
vt 1.500000 0.790656
vt 1.000000 0.790656
vt 1.000000 0.342175
vt 1.500000 0.342175
vt 0.525643 0.065795
vt 0.539378 0.038523
vt 0.476328 0.956706
vt 0.462593 0.983978
vt 0.514167 0.088582
vt 0.487804 0.933919
vt 0.716952 0.494319
vt 0.716952 0.507032
vt 0.346362 0.507032
vt 0.346362 0.494319
vt 0.346361 0.507030
vt 0.319998 0.507030
vt 0.346361 0.085029
vt 0.319998 0.085029
vt 0.448858 1.011250
vt 0.553113 0.011250
vt 0.346361 0.930366
vt 0.319998 0.930366
vt 1.001745 0.511204
vt 1.001745 1.011275
vt 0.500000 -0.209344
vt 0.500000 0.237920
vt 1.001745 0.011275
vt 1.001745 0.390006
vt 0.455112 0.427319
vt 0.308642 0.427319
vt 0.308642 0.493833
vt 0.455112 0.493833
vt 0.319987 0.494300
vt -0.049385 0.494300
vt -0.049385 0.507012
vt 0.319987 0.507012
vt 1.001745 0.498293
vt 0.455112 0.383625
vt 0.308642 0.383626
vt 0.308642 0.363011
vt 0.455112 0.363011
vt 0.006565 0.498119
vt -0.108664 0.498119
vt -0.108664 0.511083
vt 0.006565 0.511083
vt 0.006565 0.010994
vt -0.108664 0.010994
vt -0.108664 0.389725
vt 0.006565 0.389725
vt -0.108664 1.010994
vt 0.006565 1.010994
vt 0.380227 0.670097
vt 0.081796 0.670097
vt 0.081796 0.712330
vt 0.380227 0.712330
vt 0.989434 0.670097
vt 0.989434 0.712330
vt 0.754110 0.493833
vt 0.754110 0.427319
vt 0.754110 0.383625
vt 0.754110 0.363011
vt 0.754110 0.557972
vt 0.455112 0.557972
vt 0.455112 0.537357
vt 0.754110 0.537357
vt 0.380227 0.445434
vt 0.380227 0.580956
vt 0.989434 0.580956
vt 0.989434 0.445434
vt 0.989434 0.314406
vt 0.380227 0.314406
vt 0.380227 0.356639
vt 0.989434 0.356639
vt 0.081796 0.314406
vt 0.081796 0.356639
vt -0.108664 0.402690
vt 0.006565 0.402690
vt 0.308642 0.557972
vt 0.308642 0.537357
vt 0.380227 0.669636
vt 0.081796 0.669636
vt 0.081796 0.356408
vt 0.380227 0.356408
vt 1.001745 0.402917
vt 0.500000 0.790656
vt 0.500000 0.342175
vt 0.716940 0.494300
vt 0.346351 0.494300
vt 0.346351 0.507012
vt 0.716940 0.507012
vt 0.453193 0.402680
vt 0.453193 0.389968
vt 0.453193 0.088568
vt 0.118472 0.088568
vt 0.118472 0.389968
vt 0.118472 0.402680
vt 0.118472 0.497857
vt 0.118472 0.510569
vt 0.118472 0.933906
vt 0.453193 0.933906
vt 0.453193 0.510569
vt 0.453193 0.497857
vt 0.487805 0.933877
vt 0.514168 0.933877
vt 0.883540 0.933877
vt 0.883540 0.569016
vt 0.117215 0.569016
vt 0.117215 0.933877
vt 0.515474 0.412509
vt 0.488957 0.412519
vt 0.116207 0.412659
vt 0.115030 0.088817
vt 0.487780 0.088677
vt 0.514297 0.088667
vt 0.885823 0.088527
vt 0.887000 0.412368
vt 0.548594 0.389920
vt 0.548594 0.402632
vt 0.548594 0.497810
vt 0.548594 0.510522
vt 0.548594 0.933858
vt 0.884754 0.933858
vt 0.884754 0.510522
vt 0.884754 0.497810
vt 0.884754 0.402632
vt 0.884754 0.389920
vt 0.884754 0.088520
vt 0.548594 0.088520
vt -0.049198 0.506977
vt 0.320175 0.506977
vt 0.320175 0.988445
vt -0.049198 0.988445
vt 0.346538 0.506977
vt 0.717128 0.506977
vt 0.717128 0.988445
vt 0.346538 0.988445
vt 0.346362 0.939661
vt 0.652955 0.939661
vt 0.652955 0.507017
vt 0.652955 0.494025
vt 0.652955 0.396755
vt 0.652955 0.383764
vt 0.652955 0.075737
vt 0.346362 0.075737
vt 0.346362 0.383764
vt 0.346362 0.396755
vt 0.346362 0.494025
vt 0.346362 0.507017
s 0
usemtl Puerta
f 44/1/1 38/2/1 5/3/1 16/4/1
f 100/5/2 77/6/2 7/7/2 39/8/2
f 31/9/3 28/10/3 6/11/3 10/12/3
f 95/13/3 29/14/3 7/15/3 77/16/3
f 93/17/3 34/18/3 5/19/3 79/20/3
f 33/21/3 35/22/3 8/23/3 17/24/3
f 29/14/3 30/25/3 11/26/3 7/15/3
f 63/27/3 31/9/3 10/12/3 50/28/3
f 37/29/1 42/30/1 10/31/1 6/32/1
f 34/18/3 32/33/3 16/34/3 5/19/3
f 61/35/3 33/21/3 17/24/3 51/36/3
f 104/41/3 88/42/3 19/43/3 55/44/3
f 69/45/1 44/1/1 16/4/1 49/46/1
f 55/51/3 19/52/3 27/53/3 57/54/3
f 4/55/3 18/56/3 26/57/3 20/58/3
f 54/59/3 12/60/3 25/61/3 59/62/3
f 1/63/3 13/64/3 24/65/3 22/66/3
f 19/52/3 2/67/3 23/68/3 27/53/3
f 83/69/3 4/55/3 20/58/3 89/70/3
f 81/71/3 1/63/3 22/66/3 91/72/3
f 12/60/3 3/73/3 21/74/3 25/61/3
f 57/54/3 27/53/3 33/21/3 61/35/3
f 20/58/3 26/57/3 32/33/3 34/18/3
f 22/66/3 24/65/3 30/25/3 29/14/3
f 27/53/3 23/68/3 35/22/3 33/21/3
f 89/70/3 20/58/3 34/18/3 93/17/3
f 91/72/3 22/66/3 29/14/3 95/13/3
f 25/61/3 21/74/3 28/10/3 31/9/3
f 51/79/4 17/80/4 43/81/4 71/82/4
f 7/83/4 11/84/4 41/85/4 39/86/4
f 80/6/6 98/5/6 40/8/6 8/7/6
f 17/80/4 8/87/4 40/88/4 43/81/4
f 11/84/4 52/108/4 72/109/4 41/85/4
f 52/108/4 51/79/4 71/82/4 72/109/4
f 24/65/3 58/116/3 62/117/3 30/25/3
f 58/116/3 57/54/3 61/35/3 62/117/3
f 18/56/3 53/118/3 60/119/3 26/57/3
f 53/118/3 54/59/3 59/62/3 60/119/3
f 13/64/3 56/120/3 58/116/3 24/65/3
f 56/120/3 55/51/3 57/54/3 58/116/3
f 42/30/1 70/127/1 50/128/1 10/31/1
f 70/127/1 69/45/1 49/46/1 50/128/1
f 30/25/3 62/117/3 52/129/3 11/26/3
f 62/117/3 61/35/3 51/36/3 52/129/3
f 32/33/3 64/130/3 49/131/3 16/34/3
f 64/130/3 63/27/3 50/28/3 49/131/3
f 60/132/3 59/133/3 63/134/3 64/135/3
f 101/136/3 103/137/3 104/138/3 102/139/3
f 85/140/3 101/136/3 102/139/3 86/141/3
f 5/142/6 38/143/6 97/144/6 79/145/6
f 79/145/6 97/144/6 98/5/6 80/6/6
f 21/74/3 92/146/3 96/147/3 28/10/3
f 92/146/3 91/72/3 95/13/3 96/147/3
f 23/68/3 90/148/3 94/149/3 35/22/3
f 90/148/3 89/70/3 93/17/3 94/149/3
f 3/73/3 82/150/3 92/146/3 21/74/3
f 82/150/3 81/71/3 91/72/3 92/146/3
f 2/67/3 84/151/3 90/148/3 23/68/3
f 84/151/3 83/69/3 89/70/3 90/148/3
f 53/152/3 18/153/3 87/154/3 103/155/3
f 103/137/3 87/156/3 88/157/3 104/138/3
f 82/158/3 85/140/3 86/141/3 81/159/3
f 35/22/3 94/149/3 80/160/3 8/23/3
f 94/149/3 93/17/3 79/20/3 80/160/3
f 28/10/3 96/147/3 78/161/3 6/11/3
f 96/147/3 95/13/3 77/16/3 78/161/3
f 37/143/2 6/142/2 78/145/2 99/144/2
f 99/144/2 78/145/2 77/6/2 100/5/2
f 87/156/3 83/162/3 84/163/3 88/157/3
f 44/1/1 120/164/1 109/165/1 38/2/1
f 100/5/2 39/8/2 111/166/2 169/167/2
f 135/9/8 114/12/8 110/11/8 132/10/8
f 187/13/8 169/16/8 111/15/8 133/14/8
f 185/17/8 171/20/8 109/19/8 138/18/8
f 137/21/8 121/24/8 112/23/8 139/22/8
f 133/14/8 111/15/8 115/26/8 134/25/8
f 159/27/8 146/28/8 114/12/8 135/9/8
f 37/29/1 110/168/1 114/169/1 42/30/1
f 138/18/8 109/19/8 120/34/8 136/33/8
f 157/35/8 147/36/8 121/24/8 137/21/8
f 192/174/8 151/175/8 123/176/8 180/177/8
f 69/45/1 145/178/1 120/164/1 44/1/1
f 151/51/8 153/54/8 131/53/8 123/52/8
f 108/55/8 124/58/8 130/57/8 122/56/8
f 150/59/8 155/62/8 129/61/8 116/60/8
f 105/63/8 126/66/8 128/65/8 117/64/8
f 123/52/8 131/53/8 127/68/8 106/67/8
f 175/69/8 181/70/8 124/58/8 108/55/8
f 173/71/8 183/72/8 126/66/8 105/63/8
f 116/60/8 129/61/8 125/74/8 107/73/8
f 153/54/8 157/35/8 137/21/8 131/53/8
f 124/58/8 138/18/8 136/33/8 130/57/8
f 126/66/8 133/14/8 134/25/8 128/65/8
f 131/53/8 137/21/8 139/22/8 127/68/8
f 181/70/8 185/17/8 138/18/8 124/58/8
f 183/72/8 187/13/8 133/14/8 126/66/8
f 129/61/8 135/9/8 132/10/8 125/74/8
f 147/183/4 71/184/4 43/185/4 121/186/4
f 111/187/4 39/188/4 41/189/4 115/190/4
f 172/167/6 112/166/6 40/8/6 98/5/6
f 121/186/4 43/185/4 40/191/4 112/192/4
f 115/190/4 41/189/4 72/217/4 148/218/4
f 148/218/4 72/217/4 71/184/4 147/183/4
f 128/65/8 134/25/8 158/117/8 154/116/8
f 154/116/8 158/117/8 157/35/8 153/54/8
f 122/56/8 130/57/8 156/119/8 149/118/8
f 149/118/8 156/119/8 155/62/8 150/59/8
f 117/64/8 128/65/8 154/116/8 152/120/8
f 152/120/8 154/116/8 153/54/8 151/51/8
f 42/30/1 114/169/1 146/225/1 70/127/1
f 70/127/1 146/225/1 145/178/1 69/45/1
f 134/25/8 115/26/8 148/129/8 158/117/8
f 158/117/8 148/129/8 147/36/8 157/35/8
f 136/33/8 120/34/8 145/131/8 160/130/8
f 160/130/8 145/131/8 146/28/8 159/27/8
f 156/132/8 160/135/8 159/134/8 155/133/8
f 189/136/8 190/139/8 192/138/8 191/137/8
f 177/140/8 178/141/8 190/139/8 189/136/8
f 109/226/6 171/227/6 97/144/6 38/143/6
f 171/227/6 172/167/6 98/5/6 97/144/6
f 125/74/8 132/10/8 188/147/8 184/146/8
f 184/146/8 188/147/8 187/13/8 183/72/8
f 127/68/8 139/22/8 186/149/8 182/148/8
f 182/148/8 186/149/8 185/17/8 181/70/8
f 107/73/8 125/74/8 184/146/8 174/150/8
f 174/150/8 184/146/8 183/72/8 173/71/8
f 106/67/8 127/68/8 182/148/8 176/151/8
f 176/151/8 182/148/8 181/70/8 175/69/8
f 149/228/8 191/229/8 179/230/8 122/231/8
f 191/137/8 192/138/8 180/157/8 179/156/8
f 174/158/8 173/159/8 178/141/8 177/140/8
f 139/22/8 112/23/8 172/160/8 186/149/8
f 186/149/8 172/160/8 171/20/8 185/17/8
f 132/10/8 110/11/8 170/161/8 188/147/8
f 188/147/8 170/161/8 169/16/8 187/13/8
f 37/143/2 99/144/2 170/227/2 110/226/2
f 99/144/2 100/5/2 169/167/2 170/227/2
f 179/156/8 180/157/8 176/163/8 175/162/8
f 56/232/1 13/233/1 1/234/1 105/235/1 117/236/1 152/237/1 151/238/1 123/239/1 106/240/1 2/241/1 19/242/1 55/243/1
f 83/244/2 84/245/2 2/246/2 106/247/2 108/248/2 4/249/2
f 81/250/6 82/251/6 3/252/6 107/253/6 174/254/6 173/255/6 105/256/6 1/257/6
f 12/258/4 54/259/4 53/260/4 18/261/4 4/262/4 108/263/4 122/264/4 149/265/4 150/266/4 116/267/4 107/268/4 3/269/4
f 19/270/6 88/271/6 180/272/6 123/273/6
f 87/274/6 18/275/6 122/276/6 179/277/6
f 175/278/1 83/279/1 87/280/1 103/281/1 101/282/1 85/283/1 82/284/1 174/285/1 177/286/1 189/287/1 191/288/1 179/289/1
f 84/279/4 176/278/4 180/289/4 192/288/4 190/287/4 178/286/4 173/285/4 81/284/4 86/283/4 102/282/4 104/281/4 88/280/4
f 55/270/2 151/273/2 192/272/2 104/271/2
f 103/274/2 191/277/2 149/276/2 53/275/2
usemtl Agarradera
f 47/37/2 46/38/2 14/39/2 36/40/2
f 75/47/4 47/48/4 36/49/4 67/50/4
f 45/38/5 48/37/5 15/40/5 9/39/5
f 67/75/3 36/76/3 14/77/3 65/78/3
f 73/89/1 45/90/1 9/91/1 66/92/1
f 64/93/1 32/94/1 45/90/1 73/89/1
f 32/95/5 26/96/5 48/37/5 45/38/5
f 59/97/4 25/98/4 47/48/4 75/47/4
f 25/96/2 31/95/2 46/38/2 47/37/2
f 26/99/4 60/100/4 76/101/4 48/102/4
f 76/37/7 60/96/7 64/95/7 73/38/7
f 31/98/1 63/103/1 74/104/1 46/48/1
f 73/105/8 74/78/8 75/75/8 76/106/8
f 46/48/1 74/104/1 65/107/1 14/49/1
f 74/104/1 73/89/1 66/92/1 65/107/1
f 15/110/3 68/106/3 66/105/3 9/111/3
f 68/112/3 67/113/3 65/114/3 66/115/3
f 48/102/4 76/101/4 68/121/4 15/122/4
f 76/123/4 75/124/4 67/125/4 68/126/4
f 75/37/9 74/38/9 63/95/9 59/96/9
f 143/170/2 140/171/2 118/172/2 142/173/2
f 167/179/4 163/180/4 140/181/4 143/182/4
f 141/173/5 113/172/5 119/171/5 144/170/5
f 163/75/8 161/78/8 118/77/8 140/76/8
f 165/193/1 162/194/1 113/195/1 141/196/1
f 160/197/1 165/193/1 141/196/1 136/198/1
f 136/199/5 141/173/5 144/170/5 130/200/5
f 155/201/4 167/179/4 143/182/4 129/202/4
f 129/200/2 143/170/2 142/173/2 135/199/2
f 130/203/4 144/204/4 168/205/4 156/206/4
f 168/207/7 165/208/7 160/209/7 156/210/7
f 135/211/1 142/212/1 166/213/1 159/214/1
f 165/115/3 168/112/3 167/113/3 166/114/3
f 142/212/1 118/215/1 161/216/1 166/213/1
f 166/213/1 161/216/1 162/194/1 165/193/1
f 119/110/8 113/111/8 162/105/8 164/106/8
f 164/106/8 162/105/8 161/78/8 163/75/8
f 144/204/4 119/219/4 164/220/4 168/205/4
f 168/221/4 164/222/4 163/223/4 167/224/4
f 167/207/9 155/210/9 159/209/9 166/208/9
