# Blender 3.6.9
# www.blender.org
mtllib Robot_C.mtl
o Robot.C
v -0.377783 0.121199 -0.362465
v -0.377783 0.763330 -0.362465
v 0.377783 0.121199 -0.362465
v 0.377783 0.763330 -0.362465
v -0.377783 0.121199 0.362465
v -0.377783 0.763330 0.362465
v 0.377783 0.121199 0.362465
v 0.377783 0.763330 0.362465
v 0.159804 0.758979 0.017116
v 0.159804 1.034302 0.017116
v 0.189496 0.758979 0.017116
v 0.189496 1.034302 0.017116
v 0.159804 0.758979 0.046806
v 0.159804 1.034302 0.046806
v 0.189496 0.758979 0.046806
v 0.189496 1.034302 0.046806
v -0.189494 0.758979 0.017116
v -0.189494 1.034302 0.017116
v -0.159804 0.758979 0.017116
v -0.159804 1.034302 0.017116
v -0.189494 0.758979 0.046806
v -0.189494 1.034302 0.046806
v -0.159804 0.758979 0.046806
v -0.159804 1.034302 0.046806
v 0.159802 0.000640 0.000000
v 0.159802 0.126745 0.000000
v 0.156731 0.000640 0.031177
v 0.156731 0.126745 0.031177
v 0.147637 0.000640 0.061155
v 0.147637 0.126745 0.061155
v 0.132870 0.000640 0.088781
v 0.132870 0.126745 0.088781
v 0.112998 0.000640 0.112998
v 0.112998 0.126745 0.112998
v 0.088781 0.000640 0.132870
v 0.088781 0.126745 0.132870
v 0.061154 0.000640 0.147638
v 0.061154 0.126745 0.147638
v 0.031177 0.000640 0.156731
v 0.031177 0.126745 0.156731
v 0.000000 0.000640 0.159802
v 0.000000 0.126745 0.159802
v -0.031177 0.000640 0.156731
v -0.031177 0.126745 0.156731
v -0.061154 0.000640 0.147638
v -0.061154 0.126745 0.147638
v -0.088781 0.000640 0.132870
v -0.088781 0.126745 0.132870
v -0.112998 0.000640 0.112998
v -0.112998 0.126745 0.112998
v -0.132870 0.000640 0.088781
v -0.132870 0.126745 0.088781
v -0.147637 0.000640 0.061155
v -0.147637 0.126745 0.061155
v -0.156731 0.000640 0.031177
v -0.156731 0.126745 0.031177
v -0.159802 0.000640 0.000000
v -0.159802 0.126745 0.000000
v -0.156731 0.000640 -0.031177
v -0.156731 0.126745 -0.031177
v -0.147637 0.000640 -0.061154
v -0.147637 0.126745 -0.061154
v -0.132870 0.000640 -0.088781
v -0.132870 0.126745 -0.088781
v -0.112998 0.000640 -0.112998
v -0.112998 0.126745 -0.112998
v -0.088781 0.000640 -0.132870
v -0.088781 0.126745 -0.132870
v -0.061154 0.000640 -0.147637
v -0.061154 0.126745 -0.147637
v -0.031177 0.000640 -0.156731
v -0.031177 0.126745 -0.156731
v 0.000000 0.000640 -0.159802
v 0.000000 0.126745 -0.159802
v 0.031177 0.000640 -0.156731
v 0.031177 0.126745 -0.156731
v 0.061154 0.000640 -0.147637
v 0.061154 0.126745 -0.147637
v 0.088781 0.000640 -0.132870
v 0.088781 0.126745 -0.132870
v 0.112998 0.000640 -0.112998
v 0.112998 0.126745 -0.112998
v 0.132870 0.000640 -0.088781
v 0.132870 0.126745 -0.088781
v 0.147637 0.000640 -0.061154
v 0.147637 0.126745 -0.061154
v 0.156731 0.000640 -0.031177
v 0.156731 0.126745 -0.031177
v 0.439816 0.651696 0.000000
v 0.366950 0.651696 0.000000
v 0.439816 0.647673 0.040859
v 0.366950 0.647673 0.040859
v 0.439816 0.635754 0.080147
v 0.366950 0.635754 0.080147
v 0.439816 0.616400 0.116355
v 0.366950 0.616400 0.116355
v 0.439816 0.590354 0.148092
v 0.366950 0.590354 0.148092
v 0.439816 0.558617 0.174138
v 0.366950 0.558617 0.174138
v 0.439816 0.522409 0.193491
v 0.366950 0.522409 0.193491
v 0.439816 0.483121 0.205408
v 0.366950 0.483121 0.205408
v 0.439816 0.442262 0.209433
v 0.366950 0.442262 0.209433
v 0.439816 0.401404 0.205408
v 0.366950 0.401404 0.205408
v 0.439816 0.362115 0.193491
v 0.366950 0.362115 0.193491
v 0.439816 0.325908 0.174138
v 0.366950 0.325908 0.174138
v 0.439816 0.294170 0.148092
v 0.366950 0.294170 0.148092
v 0.439816 0.268125 0.116355
v 0.366950 0.268125 0.116355
v 0.439816 0.248771 0.080147
v 0.366950 0.248771 0.080147
v 0.439816 0.236854 0.040859
v 0.366950 0.236854 0.040859
v 0.439816 0.232829 0.000000
v 0.366950 0.232829 0.000000
v 0.439816 0.236854 -0.040859
v 0.366950 0.236854 -0.040859
v 0.439816 0.248771 -0.080147
v 0.366950 0.248771 -0.080147
v 0.439816 0.268125 -0.116354
v 0.366950 0.268125 -0.116354
v 0.439816 0.294170 -0.148092
v 0.366950 0.294170 -0.148092
v 0.439816 0.325908 -0.174138
v 0.366950 0.325908 -0.174138
v 0.439816 0.362115 -0.193491
v 0.366950 0.362115 -0.193491
v 0.439816 0.401404 -0.205408
v 0.366950 0.401404 -0.205408
v 0.439816 0.442262 -0.209433
v 0.366950 0.442262 -0.209433
v 0.439816 0.483121 -0.205408
v 0.366950 0.483121 -0.205408
v 0.439816 0.522409 -0.193491
v 0.366950 0.522409 -0.193491
v 0.439816 0.558617 -0.174138
v 0.366950 0.558617 -0.174138
v 0.439816 0.590354 -0.148092
v 0.366950 0.590354 -0.148092
v 0.439816 0.616400 -0.116354
v 0.366950 0.616400 -0.116354
v 0.439816 0.635754 -0.080147
v 0.366950 0.635754 -0.080147
v 0.439816 0.647673 -0.040859
v 0.366950 0.647673 -0.040859
v -0.366950 0.651696 0.000000
v -0.439816 0.651696 0.000000
v -0.366950 0.647673 0.040859
v -0.439816 0.647673 0.040859
v -0.366950 0.635754 0.080147
v -0.439816 0.635754 0.080147
v -0.366950 0.616400 0.116355
v -0.439816 0.616400 0.116355
v -0.366950 0.590354 0.148092
v -0.439816 0.590354 0.148092
v -0.366950 0.558617 0.174138
v -0.439816 0.558617 0.174138
v -0.366950 0.522409 0.193491
v -0.439816 0.522409 0.193491
v -0.366950 0.483121 0.205408
v -0.439816 0.483121 0.205408
v -0.366950 0.442262 0.209433
v -0.439816 0.442262 0.209433
v -0.366950 0.401404 0.205408
v -0.439816 0.401404 0.205408
v -0.366950 0.362115 0.193491
v -0.439816 0.362115 0.193491
v -0.366950 0.325908 0.174138
v -0.439816 0.325908 0.174138
v -0.366950 0.294170 0.148092
v -0.439816 0.294170 0.148092
v -0.366950 0.268125 0.116355
v -0.439816 0.268125 0.116355
v -0.366950 0.248771 0.080147
v -0.439816 0.248771 0.080147
v -0.366950 0.236854 0.040859
v -0.439816 0.236854 0.040859
v -0.366950 0.232829 0.000000
v -0.439816 0.232829 0.000000
v -0.366950 0.236854 -0.040859
v -0.439816 0.236854 -0.040859
v -0.366950 0.248771 -0.080147
v -0.439816 0.248771 -0.080147
v -0.366950 0.268125 -0.116354
v -0.439816 0.268125 -0.116354
v -0.366950 0.294170 -0.148092
v -0.439816 0.294170 -0.148092
v -0.366950 0.325908 -0.174138
v -0.439816 0.325908 -0.174138
v -0.366950 0.362115 -0.193491
v -0.439816 0.362115 -0.193491
v -0.366950 0.401404 -0.205408
v -0.439816 0.401404 -0.205408
v -0.366950 0.442262 -0.209433
v -0.439816 0.442262 -0.209433
v -0.366950 0.483121 -0.205408
v -0.439816 0.483121 -0.205408
v -0.366950 0.522409 -0.193491
v -0.439816 0.522409 -0.193491
v -0.366950 0.558617 -0.174138
v -0.439816 0.558617 -0.174138
v -0.366950 0.590354 -0.148092
v -0.439816 0.590354 -0.148092
v -0.366950 0.616400 -0.116354
v -0.439816 0.616400 -0.116354
v -0.366950 0.635754 -0.080147
v -0.439816 0.635754 -0.080147
v -0.366950 0.647673 -0.040859
v -0.439816 0.647673 -0.040859
vn -0.0000 -0.0000 -1.0000
vn 1.0000 -0.0000 -0.0000
vn -0.0000 -0.0000 1.0000
vn -1.0000 -0.0000 -0.0000
vn -0.0000 -1.0000 -0.0000
vn -0.0000 1.0000 -0.0000
vn 0.9952 -0.0000 0.0980
vn 0.9569 -0.0000 0.2903
vn 0.8819 -0.0000 0.4714
vn 0.7731 -0.0000 0.6343
vn 0.6343 -0.0000 0.7731
vn 0.4714 -0.0000 0.8819
vn 0.2903 -0.0000 0.9569
vn 0.0980 -0.0000 0.9952
vn -0.0980 -0.0000 0.9952
vn -0.2903 -0.0000 0.9569
vn -0.4714 -0.0000 0.8819
vn -0.6343 -0.0000 0.7731
vn -0.7731 -0.0000 0.6343
vn -0.8819 -0.0000 0.4714
vn -0.9569 -0.0000 0.2903
vn -0.9952 -0.0000 0.0980
vn -0.9952 -0.0000 -0.0980
vn -0.9569 -0.0000 -0.2903
vn -0.8819 -0.0000 -0.4714
vn -0.7731 -0.0000 -0.6343
vn -0.6343 -0.0000 -0.7731
vn -0.4714 -0.0000 -0.8819
vn -0.2903 -0.0000 -0.9569
vn -0.0980 -0.0000 -0.9952
vn 0.0980 -0.0000 -0.9952
vn 0.2903 -0.0000 -0.9569
vn 0.4714 -0.0000 -0.8819
vn 0.6343 -0.0000 -0.7731
vn 0.7731 -0.0000 -0.6343
vn 0.8819 -0.0000 -0.4714
vn 0.9569 -0.0000 -0.2903
vn 0.9952 -0.0000 -0.0980
vn -0.0000 0.9952 0.0980
vn -0.0000 0.9569 0.2903
vn -0.0000 0.8819 0.4714
vn -0.0000 0.7730 0.6344
vn -0.0000 0.6344 0.7730
vn -0.0000 0.4714 0.8819
vn -0.0000 0.2903 0.9569
vn -0.0000 0.0980 0.9952
vn -0.0000 -0.0980 0.9952
vn -0.0000 -0.2903 0.9569
vn -0.0000 -0.4714 0.8819
vn -0.0000 -0.6344 0.7730
vn -0.0000 -0.7730 0.6344
vn -0.0000 -0.8819 0.4714
vn -0.0000 -0.9569 0.2903
vn -0.0000 -0.9952 0.0980
vn -0.0000 -0.9952 -0.0980
vn -0.0000 -0.9569 -0.2903
vn -0.0000 -0.8819 -0.4714
vn -0.0000 -0.7730 -0.6344
vn -0.0000 -0.6344 -0.7730
vn -0.0000 -0.4714 -0.8819
vn -0.0000 -0.2903 -0.9569
vn -0.0000 -0.0980 -0.9952
vn -0.0000 0.0980 -0.9952
vn -0.0000 0.2903 -0.9569
vn -0.0000 0.4714 -0.8819
vn -0.0000 0.6344 -0.7730
vn -0.0000 0.7730 -0.6344
vn -0.0000 0.8819 -0.4714
vn -0.0000 0.9569 -0.2903
vn -0.0000 0.9952 -0.0980
vt 0.507885 0.381635
vt 0.507885 0.287666
vt 0.601854 0.287666
vt 0.601854 0.381635
vt 0.695822 0.099729
vt 0.695822 0.193698
vt 0.601854 0.193698
vt 0.601854 0.099729
vt 0.507885 0.193698
vt 0.507885 0.099729
vt 0.413916 0.193698
vt 0.413916 0.099729
vt 0.601854 0.005760
vt 0.507885 0.005760
vt 0.835230 0.309543
vt 0.835230 0.349834
vt 0.831537 0.349834
vt 0.831537 0.309543
vt 0.827688 0.349834
vt 0.827688 0.309543
vt 0.823996 0.349834
vt 0.823996 0.309543
vt 0.839078 0.309543
vt 0.839078 0.349834
vt 0.827688 0.305694
vt 0.823996 0.305694
vt 0.827688 0.353682
vt 0.823996 0.353682
vt 0.554336 0.786822
vt 0.554336 0.827113
vt 0.550643 0.827113
vt 0.550643 0.786822
vt 0.546794 0.827113
vt 0.546794 0.786822
vt 0.561877 0.786822
vt 0.561877 0.827113
vt 0.558184 0.827113
vt 0.558184 0.786822
vt 0.561877 0.782974
vt 0.558184 0.782974
vt 0.561877 0.830961
vt 0.558184 0.830961
vt 0.608559 0.825837
vt 0.590105 0.825837
vt 0.590105 0.821777
vt 0.608559 0.821777
vt 0.590105 0.817730
vt 0.608559 0.817730
vt 0.590105 0.813706
vt 0.608559 0.813706
vt 0.590105 0.809710
vt 0.608559 0.809710
vt 0.590105 0.805747
vt 0.608559 0.805747
vt 0.590105 0.801814
vt 0.608559 0.801814
vt 0.590105 0.797904
vt 0.608559 0.797904
vt 0.590105 0.794006
vt 0.608559 0.794006
vt 0.590105 0.790108
vt 0.608559 0.790108
vt 0.590105 0.786198
vt 0.608559 0.786198
vt 0.590105 0.782265
vt 0.608559 0.782265
vt 0.590105 0.778302
vt 0.608559 0.778302
vt 0.590105 0.774306
vt 0.608559 0.774306
vt 0.590105 0.770282
vt 0.608559 0.770282
vt 0.590105 0.766235
vt 0.608559 0.766235
vt 0.590105 0.762175
vt 0.608559 0.762175
vt 0.590105 0.758116
vt 0.608559 0.758116
vt 0.590105 0.754069
vt 0.608559 0.754069
vt 0.590105 0.750044
vt 0.608559 0.750044
vt 0.590105 0.746049
vt 0.608559 0.746049
vt 0.590105 0.742086
vt 0.608559 0.742086
vt 0.590105 0.738153
vt 0.608559 0.738153
vt 0.590105 0.734242
vt 0.608559 0.734242
vt 0.590105 0.730345
vt 0.608559 0.730345
vt 0.608559 0.857667
vt 0.590105 0.857667
vt 0.590105 0.853770
vt 0.608559 0.853770
vt 0.590105 0.849859
vt 0.608559 0.849859
vt 0.590105 0.845926
vt 0.608559 0.845926
vt 0.590105 0.841963
vt 0.608559 0.841963
vt 0.590105 0.837968
vt 0.608559 0.837968
vt 0.590105 0.833943
vt 0.608559 0.833943
vt 0.266471 0.889869
vt 0.266471 0.893929
vt 0.265711 0.897916
vt 0.264219 0.901678
vt 0.262054 0.905071
vt 0.259298 0.907963
vt 0.256057 0.910245
vt 0.252456 0.911827
vt 0.248634 0.912650
vt 0.244736 0.912681
vt 0.240913 0.911920
vt 0.237312 0.910396
vt 0.234072 0.908167
vt 0.231316 0.905319
vt 0.229150 0.901961
vt 0.227659 0.898223
vt 0.226899 0.894248
vt 0.226899 0.890189
vt 0.227659 0.886202
vt 0.229150 0.882440
vt 0.231316 0.879047
vt 0.234072 0.876154
vt 0.237312 0.873873
vt 0.240913 0.872291
vt 0.244736 0.871468
vt 0.248634 0.871436
vt 0.252456 0.872197
vt 0.256057 0.873722
vt 0.259298 0.875951
vt 0.262054 0.878799
vt 0.264219 0.882156
vt 0.265711 0.885894
vt 0.590105 0.829896
vt 0.608559 0.829896
vt 0.812476 0.289449
vt 0.803414 0.289449
vt 0.803414 0.284121
vt 0.812476 0.284121
vt 0.803414 0.278737
vt 0.812476 0.278737
vt 0.803414 0.273256
vt 0.812476 0.273256
vt 0.803414 0.267647
vt 0.812476 0.267647
vt 0.803414 0.261906
vt 0.812476 0.261906
vt 0.803414 0.256043
vt 0.812476 0.256043
vt 0.803414 0.250090
vt 0.812476 0.250090
vt 0.803414 0.244088
vt 0.812476 0.244088
vt 0.803414 0.238086
vt 0.812476 0.238086
vt 0.803414 0.232132
vt 0.812476 0.232132
vt 0.803414 0.226270
vt 0.812476 0.226270
vt 0.803414 0.220528
vt 0.812476 0.220528
vt 0.803414 0.214920
vt 0.812476 0.214920
vt 0.803414 0.209438
vt 0.812476 0.209438
vt 0.803414 0.204055
vt 0.812476 0.204055
vt 0.803414 0.198726
vt 0.812476 0.198726
vt 0.812476 0.380173
vt 0.803414 0.380173
vt 0.803414 0.374844
vt 0.812476 0.374844
vt 0.803414 0.369461
vt 0.812476 0.369461
vt 0.803414 0.363979
vt 0.812476 0.363979
vt 0.803414 0.358371
vt 0.812476 0.358371
vt 0.803414 0.352629
vt 0.812476 0.352629
vt 0.803414 0.346766
vt 0.812476 0.346766
vt 0.803414 0.340813
vt 0.812476 0.340813
vt 0.803414 0.334811
vt 0.812476 0.334811
vt 0.803414 0.328809
vt 0.812476 0.328809
vt 0.803414 0.322856
vt 0.812476 0.322856
vt 0.803414 0.316993
vt 0.812476 0.316993
vt 0.803414 0.311251
vt 0.812476 0.311251
vt 0.803414 0.305643
vt 0.812476 0.305643
vt 0.803414 0.300161
vt 0.812476 0.300161
vt 0.035469 0.972946
vt 0.030141 0.973072
vt 0.024916 0.972025
vt 0.019994 0.969845
vt 0.015565 0.966615
vt 0.011798 0.962461
vt 0.008838 0.957541
vt 0.006799 0.952044
vt 0.005760 0.946182
vt 0.005760 0.940180
vt 0.006799 0.934269
vt 0.008838 0.928675
vt 0.011798 0.923615
vt 0.015565 0.919282
vt 0.019994 0.915842
vt 0.024916 0.913428
vt 0.030141 0.912134
vt 0.035469 0.912007
vt 0.040694 0.913054
vt 0.045615 0.915234
vt 0.050045 0.918464
vt 0.053812 0.922618
vt 0.056772 0.927539
vt 0.058811 0.933035
vt 0.059850 0.938897
vt 0.059850 0.944899
vt 0.058811 0.950810
vt 0.056772 0.956404
vt 0.053812 0.961464
vt 0.050045 0.965798
vt 0.045616 0.969237
vt 0.040694 0.971651
vt 0.803414 0.294778
vt 0.812476 0.294778
vt 0.101078 0.973072
vt 0.095751 0.972946
vt 0.090526 0.971651
vt 0.085604 0.969237
vt 0.081174 0.965798
vt 0.077407 0.961464
vt 0.074448 0.956404
vt 0.072409 0.950810
vt 0.071369 0.944899
vt 0.071369 0.938897
vt 0.072409 0.933035
vt 0.074448 0.927539
vt 0.077407 0.922618
vt 0.081174 0.918464
vt 0.085604 0.915234
vt 0.090526 0.913054
vt 0.095751 0.912007
vt 0.101078 0.912134
vt 0.106303 0.913428
vt 0.111225 0.915842
vt 0.115655 0.919282
vt 0.119422 0.923615
vt 0.122382 0.928676
vt 0.124420 0.934269
vt 0.125460 0.940180
vt 0.125460 0.946182
vt 0.124420 0.952044
vt 0.122382 0.957541
vt 0.119422 0.962461
vt 0.115655 0.966615
vt 0.111225 0.969845
vt 0.106303 0.972025
vt 0.812476 0.096483
vt 0.803414 0.096483
vt 0.803414 0.091154
vt 0.812476 0.091154
vt 0.803414 0.085771
vt 0.812476 0.085771
vt 0.803414 0.080289
vt 0.812476 0.080289
vt 0.803414 0.074681
vt 0.812476 0.074681
vt 0.803414 0.068939
vt 0.812476 0.068939
vt 0.803414 0.063077
vt 0.812476 0.063077
vt 0.803414 0.057123
vt 0.812476 0.057123
vt 0.803414 0.051121
vt 0.812476 0.051121
vt 0.803414 0.045120
vt 0.812476 0.045120
vt 0.803414 0.039166
vt 0.812476 0.039166
vt 0.803414 0.033304
vt 0.812476 0.033304
vt 0.803414 0.027562
vt 0.812476 0.027562
vt 0.803414 0.021954
vt 0.812476 0.021954
vt 0.803414 0.016472
vt 0.812476 0.016472
vt 0.803414 0.011089
vt 0.812476 0.011089
vt 0.803414 0.005760
vt 0.812476 0.005760
vt 0.812476 0.187207
vt 0.803414 0.187207
vt 0.803414 0.181878
vt 0.812476 0.181878
vt 0.803414 0.176495
vt 0.812476 0.176495
vt 0.803414 0.171013
vt 0.812476 0.171013
vt 0.803414 0.165405
vt 0.812476 0.165405
vt 0.803414 0.159663
vt 0.812476 0.159663
vt 0.803414 0.153800
vt 0.812476 0.153800
vt 0.803414 0.147847
vt 0.812476 0.147847
vt 0.803414 0.141845
vt 0.812476 0.141845
vt 0.803414 0.135843
vt 0.812476 0.135843
vt 0.803414 0.129890
vt 0.812476 0.129890
vt 0.803414 0.124027
vt 0.812476 0.124027
vt 0.803414 0.118285
vt 0.812476 0.118285
vt 0.803414 0.112677
vt 0.812476 0.112677
vt 0.803414 0.107195
vt 0.812476 0.107195
vt 0.872109 0.979739
vt 0.866782 0.979866
vt 0.861556 0.978819
vt 0.856635 0.976638
vt 0.852205 0.973409
vt 0.848438 0.969254
vt 0.845478 0.964334
vt 0.843439 0.958838
vt 0.842400 0.952976
vt 0.842400 0.946974
vt 0.843439 0.941063
vt 0.845478 0.935469
vt 0.848438 0.930408
vt 0.852205 0.926075
vt 0.856635 0.922636
vt 0.861556 0.920222
vt 0.866782 0.918927
vt 0.872109 0.918801
vt 0.877334 0.919848
vt 0.882256 0.922028
vt 0.886685 0.925257
vt 0.890453 0.929412
vt 0.893412 0.934332
vt 0.895451 0.939829
vt 0.896490 0.945691
vt 0.896490 0.951693
vt 0.895451 0.957604
vt 0.893412 0.963197
vt 0.890453 0.968258
vt 0.886685 0.972591
vt 0.882256 0.976031
vt 0.877334 0.978444
vt 0.803414 0.101812
vt 0.812476 0.101812
vt 0.937719 0.979865
vt 0.932391 0.979739
vt 0.927166 0.978444
vt 0.922244 0.976031
vt 0.917815 0.972591
vt 0.914048 0.968258
vt 0.911088 0.963197
vt 0.909049 0.957604
vt 0.908010 0.951693
vt 0.908010 0.945691
vt 0.909049 0.939829
vt 0.911088 0.934332
vt 0.914048 0.929412
vt 0.917815 0.925257
vt 0.922244 0.922028
vt 0.927166 0.919848
vt 0.932391 0.918801
vt 0.937719 0.918927
vt 0.942944 0.920222
vt 0.947866 0.922635
vt 0.952295 0.926075
vt 0.956062 0.930408
vt 0.959022 0.935469
vt 0.961061 0.941062
vt 0.962100 0.946974
vt 0.962100 0.952976
vt 0.961061 0.958837
vt 0.959022 0.964334
vt 0.956062 0.969254
vt 0.952295 0.973409
vt 0.947866 0.976638
vt 0.942944 0.978819
s 0
usemtl Robot
f 1/1/1 2/2/1 4/3/1 3/4/1
f 3/5/2 4/6/2 8/7/2 7/8/2
f 7/8/3 8/7/3 6/9/3 5/10/3
f 5/10/4 6/9/4 2/11/4 1/12/4
f 3/13/5 7/8/5 5/10/5 1/14/5
f 8/7/6 4/3/6 2/2/6 6/9/6
f 9/15/1 10/16/1 12/17/1 11/18/1
f 11/18/2 12/17/2 16/19/2 15/20/2
f 15/20/3 16/19/3 14/21/3 13/22/3
f 13/23/4 14/24/4 10/16/4 9/15/4
f 11/25/5 15/20/5 13/22/5 9/26/5
f 16/19/6 12/27/6 10/28/6 14/21/6
f 17/29/1 18/30/1 20/31/1 19/32/1
f 19/32/2 20/31/2 24/33/2 23/34/2
f 23/35/3 24/36/3 22/37/3 21/38/3
f 21/38/4 22/37/4 18/30/4 17/29/4
f 19/39/5 23/35/5 21/38/5 17/40/5
f 24/36/6 20/41/6 18/42/6 22/37/6
f 25/43/7 26/44/7 28/45/7 27/46/7
f 27/46/8 28/45/8 30/47/8 29/48/8
f 29/48/9 30/47/9 32/49/9 31/50/9
f 31/50/10 32/49/10 34/51/10 33/52/10
f 33/52/11 34/51/11 36/53/11 35/54/11
f 35/54/12 36/53/12 38/55/12 37/56/12
f 37/56/13 38/55/13 40/57/13 39/58/13
f 39/58/14 40/57/14 42/59/14 41/60/14
f 41/60/15 42/59/15 44/61/15 43/62/15
f 43/62/16 44/61/16 46/63/16 45/64/16
f 45/64/17 46/63/17 48/65/17 47/66/17
f 47/66/18 48/65/18 50/67/18 49/68/18
f 49/68/19 50/67/19 52/69/19 51/70/19
f 51/70/20 52/69/20 54/71/20 53/72/20
f 53/72/21 54/71/21 56/73/21 55/74/21
f 55/74/22 56/73/22 58/75/22 57/76/22
f 57/76/23 58/75/23 60/77/23 59/78/23
f 59/78/24 60/77/24 62/79/24 61/80/24
f 61/80/25 62/79/25 64/81/25 63/82/25
f 63/82/26 64/81/26 66/83/26 65/84/26
f 65/84/27 66/83/27 68/85/27 67/86/27
f 67/86/28 68/85/28 70/87/28 69/88/28
f 69/88/29 70/87/29 72/89/29 71/90/29
f 71/90/30 72/89/30 74/91/30 73/92/30
f 73/93/31 74/94/31 76/95/31 75/96/31
f 75/96/32 76/95/32 78/97/32 77/98/32
f 77/98/33 78/97/33 80/99/33 79/100/33
f 79/100/34 80/99/34 82/101/34 81/102/34
f 81/102/35 82/101/35 84/103/35 83/104/35
f 83/104/36 84/103/36 86/105/36 85/106/36
f 28/107/6 26/108/6 88/109/6 86/110/6 84/111/6 82/112/6 80/113/6 78/114/6 76/115/6 74/116/6 72/117/6 70/118/6 68/119/6 66/120/6 64/121/6 62/122/6 60/123/6 58/124/6 56/125/6 54/126/6 52/127/6 50/128/6 48/129/6 46/130/6 44/131/6 42/132/6 40/133/6 38/134/6 36/135/6 34/136/6 32/137/6 30/138/6
f 85/106/37 86/105/37 88/139/37 87/140/37
f 87/140/38 88/139/38 26/44/38 25/43/38
f 89/141/39 90/142/39 92/143/39 91/144/39
f 91/144/40 92/143/40 94/145/40 93/146/40
f 93/146/41 94/145/41 96/147/41 95/148/41
f 95/148/42 96/147/42 98/149/42 97/150/42
f 97/150/43 98/149/43 100/151/43 99/152/43
f 99/152/44 100/151/44 102/153/44 101/154/44
f 101/154/45 102/153/45 104/155/45 103/156/45
f 103/156/46 104/155/46 106/157/46 105/158/46
f 105/158/47 106/157/47 108/159/47 107/160/47
f 107/160/48 108/159/48 110/161/48 109/162/48
f 109/162/49 110/161/49 112/163/49 111/164/49
f 111/164/50 112/163/50 114/165/50 113/166/50
f 113/166/51 114/165/51 116/167/51 115/168/51
f 115/168/52 116/167/52 118/169/52 117/170/52
f 117/170/53 118/169/53 120/171/53 119/172/53
f 119/172/54 120/171/54 122/173/54 121/174/54
f 121/175/55 122/176/55 124/177/55 123/178/55
f 123/178/56 124/177/56 126/179/56 125/180/56
f 125/180/57 126/179/57 128/181/57 127/182/57
f 127/182/58 128/181/58 130/183/58 129/184/58
f 129/184/59 130/183/59 132/185/59 131/186/59
f 131/186/60 132/185/60 134/187/60 133/188/60
f 133/188/61 134/187/61 136/189/61 135/190/61
f 135/190/62 136/189/62 138/191/62 137/192/62
f 137/192/63 138/191/63 140/193/63 139/194/63
f 139/194/64 140/193/64 142/195/64 141/196/64
f 141/196/65 142/195/65 144/197/65 143/198/65
f 143/198/66 144/197/66 146/199/66 145/200/66
f 145/200/67 146/199/67 148/201/67 147/202/67
f 147/202/68 148/201/68 150/203/68 149/204/68
f 92/205/4 90/206/4 152/207/4 150/208/4 148/209/4 146/210/4 144/211/4 142/212/4 140/213/4 138/214/4 136/215/4 134/216/4 132/217/4 130/218/4 128/219/4 126/220/4 124/221/4 122/222/4 120/223/4 118/224/4 116/225/4 114/226/4 112/227/4 110/228/4 108/229/4 106/230/4 104/231/4 102/232/4 100/233/4 98/234/4 96/235/4 94/236/4
f 149/204/69 150/203/69 152/237/69 151/238/69
f 151/238/70 152/237/70 90/142/70 89/141/70
f 89/239/2 91/240/2 93/241/2 95/242/2 97/243/2 99/244/2 101/245/2 103/246/2 105/247/2 107/248/2 109/249/2 111/250/2 113/251/2 115/252/2 117/253/2 119/254/2 121/255/2 123/256/2 125/257/2 127/258/2 129/259/2 131/260/2 133/261/2 135/262/2 137/263/2 139/264/2 141/265/2 143/266/2 145/267/2 147/268/2 149/269/2 151/270/2
f 153/271/39 154/272/39 156/273/39 155/274/39
f 155/274/40 156/273/40 158/275/40 157/276/40
f 157/276/41 158/275/41 160/277/41 159/278/41
f 159/278/42 160/277/42 162/279/42 161/280/42
f 161/280/43 162/279/43 164/281/43 163/282/43
f 163/282/44 164/281/44 166/283/44 165/284/44
f 165/284/45 166/283/45 168/285/45 167/286/45
f 167/286/46 168/285/46 170/287/46 169/288/46
f 169/288/47 170/287/47 172/289/47 171/290/47
f 171/290/48 172/289/48 174/291/48 173/292/48
f 173/292/49 174/291/49 176/293/49 175/294/49
f 175/294/50 176/293/50 178/295/50 177/296/50
f 177/296/51 178/295/51 180/297/51 179/298/51
f 179/298/52 180/297/52 182/299/52 181/300/52
f 181/300/53 182/299/53 184/301/53 183/302/53
f 183/302/54 184/301/54 186/303/54 185/304/54
f 185/305/55 186/306/55 188/307/55 187/308/55
f 187/308/56 188/307/56 190/309/56 189/310/56
f 189/310/57 190/309/57 192/311/57 191/312/57
f 191/312/58 192/311/58 194/313/58 193/314/58
f 193/314/59 194/313/59 196/315/59 195/316/59
f 195/316/60 196/315/60 198/317/60 197/318/60
f 197/318/61 198/317/61 200/319/61 199/320/61
f 199/320/62 200/319/62 202/321/62 201/322/62
f 201/322/63 202/321/63 204/323/63 203/324/63
f 203/324/64 204/323/64 206/325/64 205/326/64
f 205/326/65 206/325/65 208/327/65 207/328/65
f 207/328/66 208/327/66 210/329/66 209/330/66
f 209/330/67 210/329/67 212/331/67 211/332/67
f 211/332/68 212/331/68 214/333/68 213/334/68
f 156/335/4 154/336/4 216/337/4 214/338/4 212/339/4 210/340/4 208/341/4 206/342/4 204/343/4 202/344/4 200/345/4 198/346/4 196/347/4 194/348/4 192/349/4 190/350/4 188/351/4 186/352/4 184/353/4 182/354/4 180/355/4 178/356/4 176/357/4 174/358/4 172/359/4 170/360/4 168/361/4 166/362/4 164/363/4 162/364/4 160/365/4 158/366/4
f 213/334/69 214/333/69 216/367/69 215/368/69
f 215/368/70 216/367/70 154/272/70 153/271/70
f 153/369/2 155/370/2 157/371/2 159/372/2 161/373/2 163/374/2 165/375/2 167/376/2 169/377/2 171/378/2 173/379/2 175/380/2 177/381/2 179/382/2 181/383/2 183/384/2 185/385/2 187/386/2 189/387/2 191/388/2 193/389/2 195/390/2 197/391/2 199/392/2 201/393/2 203/394/2 205/395/2 207/396/2 209/397/2 211/398/2 213/399/2 215/400/2
