# This file uses centimeters as units for non-parametric coordinates.

mtllib PuertaCasa.mtl
g default
v 0.042603 0.041383 0.680528
v 4.744581 0.041383 0.680528
v 0.042603 13.492583 0.680528
v 4.744581 13.492583 0.680528
v 0.042603 13.492583 -0.741377
v 4.744581 13.492583 -0.741377
v 0.042603 0.041383 -0.741377
v 4.744581 0.041383 -0.741377
v 0.172706 0.413575 0.680528
v 4.614478 0.413575 0.680528
v 4.614478 13.120391 0.680528
v 0.172706 13.120391 0.680528
v 0.172706 0.413575 0.446420
v 4.614478 0.413575 0.446420
v 4.614478 13.120391 0.446420
v 0.172706 13.120391 0.446420
v 0.330858 0.866009 0.446420
v 4.456326 0.866009 0.446420
v 4.456326 12.667956 0.446420
v 0.330858 12.667956 0.446420
v 0.330858 0.866009 0.133411
v 4.456326 0.866009 0.133411
v 4.456326 12.667956 0.133411
v 0.330858 12.667956 0.133411
v 0.717564 0.901072 0.471827
v 4.069620 0.901072 0.471827
v 0.717564 10.227741 0.471827
v 4.069620 10.227741 0.471827
v 0.717564 10.227741 0.126492
v 4.069620 10.227741 0.126492
v 0.717564 0.901072 0.126492
v 4.069620 0.901072 0.126492
v 0.847168 1.261679 0.510567
v 3.940016 1.261679 0.510567
v 3.940016 9.867134 0.510567
v 0.847168 9.867134 0.510567
v 1.000943 1.689539 0.469947
v 3.786242 1.689539 0.469947
v 3.786242 9.439275 0.469947
v 1.000943 9.439275 0.469947
v 1.060953 1.693053 0.541002
v 3.726231 1.693053 0.541002
v 1.060953 4.568977 0.541002
v 3.726231 4.568977 0.541002
v 1.060953 4.568977 0.469753
v 3.726231 4.568977 0.469753
v 1.060953 1.693053 0.469753
v 3.726231 1.693053 0.469753
v 1.247276 1.894102 0.545387
v 3.539908 1.894102 0.545387
v 3.539908 4.367928 0.545387
v 1.247276 4.367928 0.545387
vt 0.099014 0.287601
vt 0.100068 0.270965
vt 0.180259 0.287623
vt 0.181313 0.270987
vt 0.375269 0.451022
vt 0.375269 0.445773
vt 0.376856 0.451022
vt 0.376856 0.445773
vt 0.193868 0.301251
vt 0.089172 0.295259
vt 0.192202 0.027632
vt 0.088657 0.027791
vt 0.373521 0.451853
vt 0.373521 0.446604
vt 0.375109 0.451853
vt 0.375109 0.446604
vt 0.376075 0.406444
vt 0.378266 0.406444
vt 0.376075 0.427164
vt 0.378266 0.427164
vt 0.378532 0.406444
vt 0.380723 0.406444
vt 0.378532 0.427164
vt 0.380723 0.427164
vt 0.380978 0.421083
vt 0.381144 0.421083
vt 0.380982 0.421096
vt 0.381139 0.421096
vt 0.381144 0.421083
vt 0.381144 0.421559
vt 0.381139 0.421096
vt 0.381139 0.421545
vt 0.381144 0.421559
vt 0.380978 0.421559
vt 0.381139 0.421545
vt 0.380982 0.421545
vt 0.380989 0.427164
vt 0.380989 0.406444
vt 0.381189 0.426591
vt 0.381189 0.407018
vt 0.381099 0.421719
vt 0.381099 0.421562
vt 0.381107 0.421719
vt 0.381107 0.421562
vt 0.381158 0.421083
vt 0.381158 0.421532
vt 0.381150 0.421083
vt 0.381150 0.421532
vt 0.372939 0.446604
vt 0.372939 0.451563
vt 0.372678 0.446604
vt 0.372678 0.451563
vt 0.563335 0.536071
vt 0.563335 0.001992
vt 0.573175 0.536071
vt 0.573175 0.001992
vt 0.381179 0.421083
vt 0.381336 0.421083
vt 0.381185 0.421099
vt 0.381330 0.421099
vt 0.381336 0.421083
vt 0.381336 0.421532
vt 0.381330 0.421099
vt 0.381330 0.421516
vt 0.381336 0.421532
vt 0.381179 0.421532
vt 0.381330 0.421516
vt 0.381185 0.421516
vt 0.381179 0.421532
vt 0.381179 0.421083
vt 0.381185 0.421516
vt 0.381185 0.421099
vt 0.381069 0.421708
vt 0.381069 0.421562
vt 0.381080 0.421708
vt 0.381080 0.421562
vt 0.381504 0.421083
vt 0.381504 0.421500
vt 0.381493 0.421083
vt 0.381493 0.421500
vt 0.372008 0.446604
vt 0.372008 0.451209
vt 0.371659 0.446604
vt 0.371659 0.451209
vt 0.381504 0.421921
vt 0.381504 0.421504
vt 0.381516 0.421921
vt 0.381516 0.421504
vt 0.101588 0.102412
vt 0.181662 0.103156
vt 0.103820 0.241240
vt 0.181662 0.244960
vt 0.371113 0.450346
vt 0.371113 0.446604
vt 0.371499 0.450346
vt 0.371499 0.446604
vt 0.378108 0.445773
vt 0.381850 0.445773
vt 0.378108 0.456185
vt 0.381850 0.456185
vt 0.370567 0.450346
vt 0.370567 0.446604
vt 0.370953 0.450346
vt 0.370953 0.446604
vt 0.381240 0.421536
vt 0.381252 0.421536
vt 0.381240 0.421865
vt 0.381252 0.421865
vt 0.381223 0.421536
vt 0.381235 0.421536
vt 0.381223 0.421865
vt 0.381235 0.421865
vt 0.381381 0.421504
vt 0.381499 0.421504
vt 0.381386 0.421516
vt 0.381495 0.421516
vt 0.381499 0.421504
vt 0.381499 0.421833
vt 0.381495 0.421516
vt 0.381495 0.421820
vt 0.381499 0.421833
vt 0.381381 0.421833
vt 0.381495 0.421820
vt 0.381386 0.421820
vt 0.381381 0.421833
vt 0.381381 0.421504
vt 0.381386 0.421820
vt 0.381386 0.421516
vt 0.381386 0.421516
vt 0.381495 0.421516
vt 0.381391 0.421531
vt 0.381489 0.421531
vt 0.381495 0.421516
vt 0.381495 0.421820
vt 0.381489 0.421531
vt 0.381489 0.421805
vt 0.381495 0.421820
vt 0.381386 0.421820
vt 0.381489 0.421805
vt 0.381391 0.421805
vt 0.381386 0.421820
vt 0.381386 0.421516
vt 0.381391 0.421805
vt 0.381391 0.421531
vt 0.266848 0.046373
vt 0.297803 0.046373
vt 0.266848 0.109334
vt 0.297803 0.109334
vt 0.298043 0.098085
vt 0.298043 0.047058
vt 0.298247 0.098085
vt 0.298247 0.047058
vt 0.266772 0.047392
vt 0.296740 0.047392
vt 0.266772 0.108315
vt 0.296740 0.108315
vt 0.297428 0.098085
vt 0.297428 0.047058
vt 0.297632 0.098085
vt 0.297632 0.047058
vt 0.299272 0.047058
vt 0.299476 0.047058
vt 0.299272 0.102118
vt 0.299476 0.102118
vt 0.298657 0.047058
vt 0.298861 0.047058
vt 0.298657 0.102118
vt 0.298861 0.102118
vt 0.261571 0.040622
vt 0.300263 0.040622
vt 0.264276 0.045827
vt 0.297558 0.045827
vt 0.300263 0.040622
vt 0.300263 0.115085
vt 0.297558 0.045827
vt 0.297558 0.109879
vt 0.300263 0.115085
vt 0.261571 0.115085
vt 0.297558 0.109879
vt 0.264276 0.109879
vt 0.261571 0.115085
vt 0.261571 0.040622
vt 0.264276 0.109879
vt 0.264276 0.045827
vn 0.000000 0.000000 1.000000
vn 0.000000 0.000000 1.000000
vn 0.000000 0.000000 1.000000
vn 0.000000 0.000000 1.000000
vn 0.000000 0.000000 1.000000
vn 0.000000 0.000000 1.000000
vn 0.000000 1.000000 0.000000
vn 0.000000 1.000000 0.000000
vn 0.000000 1.000000 0.000000
vn 0.000000 1.000000 0.000000
vn 0.000000 1.000000 0.000000
vn 0.000000 1.000000 0.000000
vn 0.000000 0.000000 -1.000000
vn 0.000000 0.000000 -1.000000
vn 0.000000 0.000000 -1.000000
vn 0.000000 0.000000 -1.000000
vn 0.000000 0.000000 -1.000000
vn 0.000000 0.000000 -1.000000
vn 0.000000 -1.000000 0.000000
vn 0.000000 -1.000000 0.000000
vn 0.000000 -1.000000 0.000000
vn 0.000000 -1.000000 0.000000
vn 0.000000 -1.000000 0.000000
vn 0.000000 -1.000000 0.000000
vn 1.000000 0.000000 0.000000
vn 1.000000 0.000000 0.000000
vn 1.000000 0.000000 0.000000
vn 1.000000 0.000000 0.000000
vn 1.000000 0.000000 0.000000
vn 1.000000 0.000000 0.000000
vn -1.000000 0.000000 0.000000
vn -1.000000 0.000000 0.000000
vn -1.000000 0.000000 0.000000
vn -1.000000 0.000000 0.000000
vn -1.000000 0.000000 0.000000
vn -1.000000 0.000000 0.000000
vn 0.000000 0.000000 1.000000
vn 0.000000 0.000000 1.000000
vn 0.000000 0.000000 1.000000
vn 0.000000 0.000000 1.000000
vn 0.000000 0.000000 1.000000
vn 0.000000 0.000000 1.000000
vn -0.000002 0.000000 1.000000
vn 0.000000 0.000000 1.000000
vn -0.000002 0.000000 1.000000
vn -0.000002 0.000000 1.000000
vn 0.000000 0.000000 1.000000
vn 0.000000 0.000000 1.000000
vn 0.000000 0.000000 1.000000
vn 0.000000 0.000000 1.000000
vn 0.000000 0.000000 1.000000
vn 0.000000 0.000000 1.000000
vn 0.000000 0.000000 1.000000
vn 0.000000 0.000000 1.000000
vn 0.000002 0.000000 1.000000
vn 0.000000 0.000000 1.000000
vn 0.000002 0.000000 1.000000
vn 0.000002 0.000000 1.000000
vn 0.000000 0.000000 1.000000
vn 0.000000 0.000000 1.000000
vn 0.000000 1.000000 0.000000
vn 0.000000 1.000000 0.000000
vn 0.000000 1.000000 0.000000
vn 0.000000 1.000000 0.000000
vn 0.000000 1.000000 0.000000
vn 0.000000 1.000000 0.000000
vn -1.000000 0.000000 0.000000
vn -1.000000 0.000000 0.000000
vn -1.000000 0.000000 0.000000
vn -1.000000 0.000000 0.000000
vn -1.000000 0.000000 0.000000
vn -1.000000 0.000000 0.000000
vn 0.000000 -1.000000 0.000000
vn 0.000000 -1.000000 0.000000
vn 0.000000 -1.000000 0.000000
vn 0.000000 -1.000000 0.000000
vn 0.000000 -1.000000 0.000000
vn 0.000000 -1.000000 0.000000
vn 1.000000 0.000000 0.000000
vn 1.000000 0.000000 0.000000
vn 1.000000 0.000000 0.000000
vn 1.000000 0.000000 0.000000
vn 1.000000 0.000000 0.000000
vn 1.000000 0.000000 0.000000
vn 0.000000 0.000000 1.000000
vn 0.000000 0.000000 1.000000
vn 0.000000 0.000000 1.000000
vn 0.000000 0.000000 1.000000
vn 0.000000 0.000000 1.000000
vn 0.000000 0.000000 1.000000
vn -0.000004 0.000000 1.000000
vn 0.000008 0.000000 1.000000
vn -0.000004 0.000000 1.000000
vn -0.000004 0.000000 1.000000
vn 0.000008 0.000000 1.000000
vn 0.000008 0.000000 1.000000
vn 0.000000 0.000000 1.000000
vn 0.000000 0.000000 1.000000
vn 0.000000 0.000000 1.000000
vn 0.000000 0.000000 1.000000
vn 0.000000 0.000000 1.000000
vn 0.000000 0.000000 1.000000
vn 0.000003 0.000000 1.000000
vn 0.000000 0.000000 1.000000
vn 0.000003 0.000000 1.000000
vn 0.000003 0.000000 1.000000
vn 0.000000 0.000000 1.000000
vn 0.000000 0.000000 1.000000
vn 0.000000 1.000000 0.000000
vn 0.000000 1.000000 0.000000
vn 0.000000 1.000000 0.000000
vn 0.000000 1.000000 0.000000
vn 0.000000 1.000000 0.000000
vn 0.000000 1.000000 0.000000
vn -1.000000 0.000000 0.000000
vn -1.000000 0.000000 0.000000
vn -1.000000 0.000000 0.000000
vn -1.000000 0.000000 0.000000
vn -1.000000 0.000000 0.000000
vn -1.000000 0.000000 0.000000
vn 0.000000 -1.000000 0.000000
vn 0.000000 -1.000000 0.000000
vn 0.000000 -1.000000 0.000000
vn 0.000000 -1.000000 0.000000
vn 0.000000 -1.000000 0.000000
vn 0.000000 -1.000000 0.000000
vn 1.000000 0.000000 0.000000
vn 1.000000 0.000000 0.000000
vn 1.000000 0.000000 0.000000
vn 1.000000 0.000000 0.000000
vn 1.000000 0.000000 0.000000
vn 1.000000 0.000000 0.000000
vn 0.000000 0.000000 1.000000
vn 0.000000 0.000000 1.000000
vn 0.000000 0.000000 1.000000
vn 0.000000 0.000000 1.000000
vn 0.000000 0.000000 1.000000
vn 0.000000 0.000000 1.000000
vn 0.000000 1.000000 0.000000
vn 0.000000 1.000000 0.000000
vn 0.000000 1.000000 0.000000
vn 0.000000 1.000000 0.000000
vn 0.000000 1.000000 0.000000
vn 0.000000 1.000000 0.000000
vn 0.000000 0.000000 -1.000000
vn 0.000000 0.000000 -1.000000
vn 0.000000 0.000000 -1.000000
vn 0.000000 0.000000 -1.000000
vn 0.000000 0.000000 -1.000000
vn 0.000000 0.000000 -1.000000
vn 0.000000 -1.000000 0.000000
vn 0.000000 -1.000000 0.000000
vn 0.000000 -1.000000 0.000000
vn 0.000000 -1.000000 0.000000
vn 0.000000 -1.000000 0.000000
vn 0.000000 -1.000000 0.000000
vn 1.000000 0.000000 0.000000
vn 1.000000 0.000000 0.000000
vn 1.000000 0.000000 0.000000
vn 1.000000 0.000000 0.000000
vn 1.000000 0.000000 0.000000
vn 1.000000 0.000000 0.000000
vn -1.000000 0.000000 0.000000
vn -1.000000 0.000000 0.000000
vn -1.000000 0.000000 0.000000
vn -1.000000 0.000000 0.000000
vn -1.000000 0.000000 0.000000
vn -1.000000 0.000000 0.000000
vn 0.000000 -0.106816 0.994279
vn 0.000000 -0.106816 0.994279
vn 0.000000 -0.106816 0.994279
vn 0.000000 -0.106816 0.994279
vn 0.000000 -0.106816 0.994279
vn 0.000000 -0.106816 0.994279
vn 0.286389 0.000000 0.958114
vn 0.286388 0.000000 0.958114
vn 0.286389 0.000000 0.958113
vn 0.286389 0.000000 0.958113
vn 0.286388 0.000000 0.958114
vn 0.286388 0.000000 0.958114
vn 0.000000 0.106816 0.994279
vn 0.000000 0.106815 0.994279
vn 0.000000 0.106816 0.994279
vn 0.000000 0.106816 0.994279
vn 0.000000 0.106815 0.994279
vn 0.000000 0.106815 0.994279
vn -0.286388 0.000000 0.958114
vn -0.286388 0.000000 0.958114
vn -0.286388 0.000000 0.958114
vn -0.286388 0.000000 0.958114
vn -0.286388 0.000000 0.958114
vn -0.286388 0.000000 0.958114
vn 0.000000 0.094512 0.995524
vn 0.000000 0.094512 0.995524
vn 0.000000 0.094512 0.995524
vn 0.000000 0.094512 0.995524
vn 0.000000 0.094512 0.995524
vn 0.000000 0.094512 0.995524
vn -0.255391 0.000000 0.966838
vn -0.255388 0.000000 0.966839
vn -0.255391 0.000000 0.966838
vn -0.255391 0.000000 0.966838
vn -0.255388 0.000000 0.966839
vn -0.255388 0.000000 0.966839
vn 0.000000 -0.094512 0.995524
vn 0.000000 -0.094512 0.995524
vn 0.000000 -0.094512 0.995524
vn 0.000000 -0.094512 0.995524
vn 0.000000 -0.094512 0.995524
vn 0.000000 -0.094512 0.995524
vn 0.255396 0.000000 0.966837
vn 0.255377 0.000000 0.966842
vn 0.255396 0.000000 0.966837
vn 0.255396 0.000000 0.966837
vn 0.255377 0.000000 0.966842
vn 0.255376 0.000000 0.966842
vn 0.000000 0.000000 1.000000
vn 0.000000 0.000000 1.000000
vn 0.000000 0.000000 1.000000
vn 0.000000 0.000000 1.000000
vn 0.000000 0.000000 1.000000
vn 0.000000 0.000000 1.000000
vn 0.000000 1.000000 0.000000
vn 0.000000 1.000000 0.000000
vn 0.000000 1.000000 0.000000
vn 0.000000 1.000000 0.000000
vn 0.000000 1.000000 0.000000
vn 0.000000 1.000000 0.000000
vn 0.000000 0.000000 -1.000000
vn 0.000000 0.000000 -1.000000
vn 0.000000 0.000000 -1.000000
vn 0.000000 0.000000 -1.000000
vn 0.000000 0.000000 -1.000000
vn 0.000000 0.000000 -1.000000
vn 0.000000 -1.000000 0.000000
vn 0.000000 -1.000000 0.000000
vn 0.000000 -1.000000 0.000000
vn 0.000000 -1.000000 0.000000
vn 0.000000 -1.000000 0.000000
vn 0.000000 -1.000000 0.000000
vn 1.000000 0.000000 0.000000
vn 1.000000 0.000000 0.000000
vn 1.000000 0.000000 0.000000
vn 1.000000 0.000000 0.000000
vn 1.000000 0.000000 0.000000
vn 1.000000 0.000000 0.000000
vn -1.000000 0.000000 0.000000
vn -1.000000 0.000000 0.000000
vn -1.000000 0.000000 0.000000
vn -1.000000 0.000000 0.000000
vn -1.000000 0.000000 0.000000
vn -1.000000 0.000000 0.000000
vn 0.000000 -0.021805 0.999762
vn 0.000000 -0.021805 0.999762
vn 0.000000 -0.021805 0.999762
vn 0.000000 -0.021805 0.999762
vn 0.000000 -0.021805 0.999762
vn 0.000000 -0.021805 0.999762
vn 0.023527 0.000000 0.999723
vn 0.023523 0.000000 0.999723
vn 0.023526 0.000000 0.999723
vn 0.023526 0.000000 0.999723
vn 0.023523 0.000000 0.999723
vn 0.023522 0.000000 0.999723
vn 0.000000 0.021805 0.999762
vn 0.000000 0.021805 0.999762
vn 0.000000 0.021805 0.999762
vn 0.000000 0.021805 0.999762
vn 0.000000 0.021805 0.999762
vn 0.000000 0.021805 0.999762
vn -0.023530 0.000000 0.999723
vn -0.023523 0.000000 0.999723
vn -0.023529 0.000000 0.999723
vn -0.023529 0.000000 0.999723
vn -0.023523 0.000000 0.999723
vn -0.023522 0.000000 0.999723
s off
g PuertaCasa:pCube5
usemtl PuertaCasa:phong5SG
f 21/1/1 22/2/2 24/3/3
f 24/3/4 22/2/5 23/4/6
f 3/5/7 4/6/8 5/7/9
f 5/7/10 4/6/11 6/8/12
f 5/9/13 6/10/14 7/11/15
f 7/11/16 6/10/17 8/12/18
f 7/13/19 8/14/20 1/15/21
f 1/15/22 8/14/23 2/16/24
f 2/17/25 8/18/26 4/19/27
f 4/19/28 8/18/29 6/20/30
f 7/21/31 1/22/32 5/23/33
f 5/23/34 1/22/35 3/24/36
f 1/25/37 2/26/38 9/27/39
f 9/27/40 2/26/41 10/28/42
f 2/29/43 4/30/44 10/31/45
f 10/31/46 4/30/47 11/32/48
f 4/33/49 3/34/50 11/35/51
f 11/35/52 3/34/53 12/36/54
f 3/37/55 1/38/56 12/39/57
f 12/39/58 1/38/59 9/40/60
f 9/41/61 10/42/62 13/43/63
f 13/43/64 10/42/65 14/44/66
f 10/45/67 11/46/68 14/47/69
f 14/47/70 11/46/71 15/48/72
f 11/49/73 12/50/74 15/51/75
f 15/51/76 12/50/77 16/52/78
f 12/53/79 9/54/80 16/55/81
f 16/55/82 9/54/83 13/56/84
f 13/57/85 14/58/86 17/59/87
f 17/59/88 14/58/89 18/60/90
f 14/61/91 15/62/92 18/63/93
f 18/63/94 15/62/95 19/64/96
f 15/65/97 16/66/98 19/67/99
f 19/67/100 16/66/101 20/68/102
f 16/69/103 13/70/104 20/71/105
f 20/71/106 13/70/107 17/72/108
f 17/73/109 18/74/110 21/75/111
f 21/75/112 18/74/113 22/76/114
f 18/77/115 19/78/116 22/79/117
f 22/79/118 19/78/119 23/80/120
f 19/81/121 20/82/122 23/83/123
f 23/83/124 20/82/125 24/84/126
f 20/85/127 17/86/128 24/87/129
f 24/87/130 17/86/131 21/88/132
f 37/89/133 38/90/134 40/91/135
f 40/91/136 38/90/137 39/92/138
f 27/93/139 28/94/140 29/95/141
f 29/95/142 28/94/143 30/96/144
f 29/97/145 30/98/146 31/99/147
f 31/99/148 30/98/149 32/100/150
f 31/101/151 32/102/152 25/103/153
f 25/103/154 32/102/155 26/104/156
f 26/105/157 32/106/158 28/107/159
f 28/107/160 32/106/161 30/108/162
f 31/109/163 25/110/164 29/111/165
f 29/111/166 25/110/167 27/112/168
f 25/113/169 26/114/170 33/115/171
f 33/115/172 26/114/173 34/116/174
f 26/117/175 28/118/176 34/119/177
f 34/119/178 28/118/179 35/120/180
f 28/121/181 27/122/182 35/123/183
f 35/123/184 27/122/185 36/124/186
f 27/125/187 25/126/188 36/127/189
f 36/127/190 25/126/191 33/128/192
f 33/129/193 34/130/194 37/131/195
f 37/131/196 34/130/197 38/132/198
f 34/133/199 35/134/200 38/135/201
f 38/135/202 35/134/203 39/136/204
f 35/137/205 36/138/206 39/139/207
f 39/139/208 36/138/209 40/140/210
f 36/141/211 33/142/212 40/143/213
f 40/143/214 33/142/215 37/144/216
f 49/145/217 50/146/218 52/147/219
f 52/147/220 50/146/221 51/148/222
f 43/149/223 44/150/224 45/151/225
f 45/151/226 44/150/227 46/152/228
f 45/153/229 46/154/230 47/155/231
f 47/155/232 46/154/233 48/156/234
f 47/157/235 48/158/236 41/159/237
f 41/159/238 48/158/239 42/160/240
f 42/161/241 48/162/242 44/163/243
f 44/163/244 48/162/245 46/164/246
f 47/165/247 41/166/248 45/167/249
f 45/167/250 41/166/251 43/168/252
f 41/169/253 42/170/254 49/171/255
f 49/171/256 42/170/257 50/172/258
f 42/173/259 44/174/260 50/175/261
f 50/175/262 44/174/263 51/176/264
f 44/177/265 43/178/266 51/179/267
f 51/179/268 43/178/269 52/180/270
f 43/181/271 41/182/272 52/183/273
f 52/183/274 41/182/275 49/184/276
