# Blender 3.6.9
# www.blender.org
mtllib Techo.mtl
o Techo
v -106.080872 30.051598 60.223186
v -106.080872 31.210876 60.223186
v -106.080872 30.051598 -60.274616
v -106.080872 31.210876 -60.274616
v 3.097511 30.051598 60.223186
v 3.097511 31.210876 60.223186
v 3.097511 30.051598 -60.274616
v 3.097511 31.210876 -60.274616
vn -1.0000 -0.0000 -0.0000
vn -0.0000 -0.0000 -1.0000
vn 1.0000 -0.0000 -0.0000
vn -0.0000 -0.0000 1.0000
vn -0.0000 -1.0000 -0.0000
vn -0.0000 1.0000 -0.0000
vt 0.508363 -1.980172
vt 0.491637 -1.980172
vt 0.491637 -0.987745
vt 0.508363 -0.987745
vt 0.488375 -0.987745
vt 0.511625 -0.987745
vt 0.511625 0.004683
vt 0.488375 0.004683
vt 0.491102 -0.002937
vt 0.508898 -0.002937
vt 0.508898 1.004730
vt 0.491102 1.004730
vt 0.482271 0.997110
vt 0.517729 0.997110
vt 0.517729 1.989537
vt 0.482271 1.989537
vt -0.988641 0.004683
vt 0.003786 0.004683
vt 0.003786 0.997110
vt -0.988641 0.997110
vt 0.996214 0.004683
vt 1.988641 0.004683
vt 1.988641 0.997110
vt 0.996214 0.997110
s 0
usemtl Pared
f 1/1/1 2/2/1 4/3/1 3/4/1
f 3/5/2 4/6/2 8/7/2 7/8/2
f 7/9/3 8/10/3 6/11/3 5/12/3
f 5/13/4 6/14/4 2/15/4 1/16/4
f 3/17/5 7/18/5 5/19/5 1/20/5
f 8/21/6 4/22/6 2/23/6 6/24/6
