# Blender 3.6.9
# www.blender.org
mtllib Extintor.mtl
o Extinguidor
v -73.867874 9.906681 -17.931736
v -73.772514 9.796325 -18.260376
v -73.932404 9.796325 -18.260376
v -73.871910 9.851820 -17.906912
v -73.852463 9.761725 -17.995098
v -73.817726 9.843913 -17.892061
v -73.772514 9.796325 -18.260376
v -73.852455 9.753897 -18.307949
v -73.932404 9.796325 -18.260376
v -73.813698 9.898774 -17.916885
v -73.932404 9.761725 -18.083523
v -73.772514 9.761725 -18.083523
v -73.820465 9.962149 -17.541395
v -73.817604 10.001069 -17.559006
v -73.856041 10.006679 -17.569542
v -73.858902 9.967758 -17.551929
v -73.827553 9.450472 -17.555367
v -73.824684 9.492242 -17.546410
v -73.863121 9.503013 -17.551552
v -73.865990 9.461243 -17.560509
v -73.852417 6.509599 -18.640202
v -73.852417 9.205257 -18.640202
v -73.539986 9.205257 -18.406534
v -73.539986 6.509599 -18.406534
v -73.539986 6.509599 -18.406534
v -73.539986 9.205257 -17.939199
v -73.539986 6.509599 -17.939199
v -73.539986 6.509599 -17.939199
v -73.852417 9.205257 -17.705532
v -73.852417 6.509599 -17.705532
v -73.852417 6.509599 -17.705532
v -73.852417 9.205257 -17.705532
v -74.164848 9.205257 -17.939199
v -74.164848 6.509599 -17.939199
v -73.852417 9.205257 -17.705532
v -73.539986 9.205257 -17.939199
v -73.762146 9.375267 -18.105322
v -73.852455 9.375267 -18.037779
v -74.164848 6.509599 -17.939199
v -74.164848 9.205257 -17.939199
v -74.164848 9.205257 -18.406534
v -74.164848 6.509599 -18.406534
v -74.164848 6.509599 -18.406534
v -74.164848 9.205257 -18.406534
v -73.852417 9.205257 -18.640202
v -73.852417 6.509599 -18.640202
v -73.762146 9.375267 -18.240408
v -73.772514 9.796325 -18.260376
v -73.772514 9.761725 -18.083523
v -73.852417 9.205257 -18.640202
v -74.164848 9.205257 -18.406534
v -73.942764 9.375267 -18.240408
v -73.852455 9.375267 -18.307949
v -74.164848 9.205257 -17.939199
v -73.942764 9.375267 -18.105322
v -73.539986 9.205257 -18.406534
v -73.871910 9.851820 -17.906912
v -73.867874 9.906681 -17.931736
v -73.932404 9.761725 -18.083523
v -73.772514 9.761725 -18.083523
v -73.852463 9.761725 -17.995098
v -73.852455 9.753897 -18.307949
v -73.852463 9.761725 -17.995098
v -73.932404 9.761725 -18.083523
v -73.820465 9.962149 -17.541395
v -73.858902 9.967758 -17.551929
v -73.813698 9.898774 -17.916885
v -73.817726 9.843913 -17.892061
v -73.856041 10.006679 -17.569542
v -73.817604 10.001069 -17.559006
v -73.817604 10.001069 -17.559006
v -73.820465 9.962149 -17.541395
v -73.858902 9.967758 -17.551929
v -73.856041 10.006679 -17.569542
v -73.871910 9.747219 -18.055025
v -73.817726 9.732036 -18.047775
v -73.827553 9.618811 -17.695459
v -73.865990 9.629582 -17.700602
v -73.813698 9.790913 -18.035151
v -73.867874 9.806096 -18.042398
v -73.863121 9.671352 -17.691645
v -73.824684 9.660581 -17.686502
v -73.827553 9.618811 -17.695459
v -73.824684 9.660581 -17.686502
v -73.824684 9.492242 -17.546410
v -73.827553 9.450472 -17.555367
v -73.827553 9.450472 -17.555367
v -73.865990 9.461243 -17.560509
v -73.817726 9.732036 -18.047775
v -73.813698 9.790913 -18.035151
v -73.867874 9.806096 -18.042398
v -73.871910 9.747219 -18.055025
v -73.865990 9.629582 -17.700602
v -73.863121 9.671352 -17.691645
v -73.865990 9.461243 -17.560509
v -73.863121 9.503013 -17.551552
v -73.894745 9.495612 -18.252159
v -73.852463 9.550390 -18.252159
v -73.852463 9.550590 -18.651896
v -73.894783 9.494479 -18.653873
v -73.852463 9.550590 -18.651896
v -73.810135 9.494479 -18.653873
v -73.809998 9.389654 -18.930494
v -73.852463 9.433812 -18.967052
v -73.852463 9.440557 -18.657116
v -73.810135 9.494479 -18.653873
v -73.810173 9.495612 -18.252159
v -73.852463 9.440834 -18.252159
v -73.894783 9.494479 -18.653873
v -73.852463 9.440557 -18.657116
v -73.852463 9.440834 -18.252159
v -73.894745 9.495612 -18.252159
v -73.852463 9.550390 -18.252159
v -73.810173 9.495612 -18.252159
v -73.810081 9.006522 -19.080141
v -73.850334 9.000497 -19.139973
v -73.852463 9.433812 -18.967052
v -73.894920 9.389654 -18.930494
v -73.852463 9.348824 -18.897827
v -73.809998 9.389654 -18.930494
v -73.894920 9.389654 -18.930494
v -73.852463 9.348824 -18.897827
v -73.894928 9.004513 -19.085382
v -73.850334 9.000497 -19.139973
v -73.852463 7.843818 -18.732790
v -73.894775 7.842719 -18.678740
v -73.854591 9.014863 -19.029766
v -73.810081 9.006522 -19.080141
v -73.894928 9.004513 -19.085382
v -73.854591 9.014863 -19.029766
v -73.810143 7.842719 -18.678740
v -73.852463 7.842698 -18.622759
v -73.852463 7.406791 -18.606146
v -73.808121 7.404932 -18.663555
v -73.894775 7.842719 -18.678740
v -73.852463 7.842698 -18.622759
v -73.810143 7.842719 -18.678740
v -73.852463 7.843818 -18.732790
v -73.896805 7.404932 -18.663555
v -73.852463 7.403074 -18.720963
v -73.808121 7.404932 -18.663555
v -73.852463 7.406791 -18.606146
v -73.896805 7.404932 -18.663555
v -73.852463 7.406791 -18.606146
v -73.808121 7.404932 -18.663555
v -73.852463 7.403074 -18.720963
v -73.852463 7.403074 -18.720963
v -73.896805 7.404932 -18.663555
v -73.852417 6.509599 -18.640202
v -73.539986 6.509599 -18.406534
v -73.539986 6.509599 -17.939199
v -73.852417 6.509599 -17.705532
v -74.164848 6.509599 -17.939199
v -74.164848 6.509599 -18.406534
vn 0.1737 0.9464 -0.2722
vn 0.7644 0.4612 -0.4506
vn -0.7660 0.4655 -0.4433
vn -0.3252 -0.7972 0.5086
vn -0.0676 -0.5709 0.8182
vn -0.1115 -0.8724 0.4760
vn 0.7643 0.4612 -0.4507
vn -0.0000 0.2938 -0.9559
vn -0.7660 0.4655 -0.4434
vn 0.2093 0.9422 -0.2618
vn -0.9546 0.0643 0.2908
vn 0.9619 -0.0022 0.2735
vn -0.1833 0.4164 0.8905
vn -0.1833 -0.1941 0.9637
vn -0.0759 0.1958 0.9777
vn -0.0457 0.2930 0.9550
vn -0.0000 -0.0000 -1.0000
vn -0.0000 0.4590 -0.8885
vn 0.8419 0.3877 -0.3753
vn 0.9134 -0.0000 -0.4071
vn 0.8420 0.3877 -0.3752
vn 0.8420 0.3877 0.3752
vn 0.9134 -0.0000 0.4071
vn 0.8419 0.3877 0.3753
vn -0.0000 0.4590 0.8885
vn -0.0000 -0.0000 1.0000
vn -0.8419 0.3877 0.3753
vn -0.9134 -0.0000 0.4071
vn 0.7900 0.5221 0.3215
vn -0.0000 0.5977 0.8017
vn -0.8420 0.3877 0.3752
vn -0.8420 0.3877 -0.3752
vn -0.9134 -0.0000 -0.4071
vn -0.8419 0.3877 -0.3753
vn 0.7685 0.5407 -0.3421
vn -0.0000 0.4590 -0.8884
vn -0.7685 0.5407 -0.3422
vn -0.0000 0.6028 -0.7979
vn -0.7901 0.5220 0.3215
vn -0.9801 0.1885 0.0620
vn -0.9780 0.1979 0.0664
vn 0.7644 0.4612 -0.4507
vn -0.9546 0.0642 0.2908
vn -0.2200 -0.9249 0.3101
vn 0.9954 0.0684 0.0664
vn 0.9967 0.0520 0.0616
vn 0.2103 0.9406 -0.2666
vn 0.9978 -0.0606 0.0282
vn -0.9969 0.0783 0.0110
vn -0.2191 -0.9271 -0.3041
vn -0.1460 -0.7993 -0.5829
vn -0.1640 -0.8355 -0.5245
vn 0.2095 0.9137 0.3482
vn 0.1573 0.8223 0.5469
vn 0.1405 0.7876 0.5999
vn 0.9975 -0.0604 -0.0372
vn 0.9977 -0.0643 -0.0190
vn 0.9964 -0.0543 -0.0652
vn -0.0762 -0.6378 -0.7664
vn 0.9976 -0.0695 0.0055
vn -0.9975 0.0605 0.0367
vn -0.9969 0.0568 0.0540
vn -0.9972 0.0584 0.0466
vn -0.9964 0.0543 0.0652
vn -0.7950 0.6066 -0.0007
vn -0.7934 0.6006 -0.0987
vn -0.7921 0.5985 -0.1201
vn 0.7935 0.6005 -0.0989
vn 0.7921 0.5984 -0.1201
vn 0.8075 0.4155 -0.4187
vn 0.8075 0.4299 -0.4039
vn 0.7782 -0.6149 0.1277
vn 0.7813 -0.6156 0.1028
vn 0.7891 -0.6143 0.0011
vn -0.7813 -0.6156 0.1028
vn -0.7782 -0.6149 0.1277
vn -0.7891 -0.6143 0.0011
vn -0.7891 -0.6142 0.0011
vn 0.7950 0.6066 -0.0007
vn 0.8081 0.0261 -0.5884
vn 0.8090 0.0007 -0.5878
vn -0.7950 0.4373 -0.4204
vn -0.7939 0.4244 -0.4354
vn 0.7663 -0.4442 0.4642
vn 0.7683 -0.4609 0.4441
vn -0.7821 -0.4518 0.4293
vn -0.7816 -0.4355 0.4466
vn -0.7795 0.0234 -0.6259
vn -0.7800 0.0039 -0.6257
vn -0.7804 -0.1231 -0.6130
vn -0.7826 -0.1051 -0.6136
vn 0.7607 -0.0369 0.6481
vn 0.7644 -0.0004 0.6448
vn -0.7949 0.0042 0.6067
vn -0.7904 -0.0394 0.6114
vn 0.7823 0.1247 0.6103
vn 0.7848 0.1091 0.6101
vn 0.7945 0.0239 0.6068
vn -0.7986 0.1184 0.5901
vn -0.7985 0.1037 0.5930
vn 0.7965 -0.0998 -0.5963
vn 0.7973 -0.1164 -0.5923
vn -0.0000 -0.9995 0.0324
vn -0.7945 0.0239 0.6068
vn 0.7894 -0.0170 -0.6136
vn 0.7894 -0.0171 -0.6137
vn -0.7894 -0.0170 -0.6136
vn -0.7894 -0.0171 -0.6136
vn -0.0000 -1.0000 -0.0000
vt 0.577351 0.884390
vt 0.528112 0.893411
vt 0.519459 0.889275
vt 0.581456 0.887611
vt 0.567119 0.893569
vt 0.583636 0.889620
vt 0.467575 0.080509
vt 0.416433 0.080509
vt 0.467577 0.080509
vt 0.579740 0.886561
vt 0.550599 0.891517
vt 0.554691 0.895321
vt 0.569862 0.140590
vt 0.467577 0.140590
vt 0.569862 0.080509
vt 0.638689 0.911863
vt 0.640047 0.909400
vt 0.641633 0.908412
vt 0.640222 0.910972
vt 0.159595 0.975810
vt 0.159595 0.219211
vt 0.340129 0.219211
vt 0.340129 0.975810
vt 0.340129 0.975810
vt 0.701194 0.219211
vt 0.701194 0.975810
vt 0.701194 0.975810
vt 0.821986 0.219211
vt 0.821986 0.975810
vt 0.821986 0.975810
vt 0.821986 0.219211
vt 0.701193 0.219211
vt 0.701193 0.975810
vt 0.787068 0.214785
vt 0.652893 0.214785
vt 0.569862 0.184660
vt 0.621005 0.184660
vt 0.701193 0.975810
vt 0.701193 0.219211
vt 0.340129 0.975810
vt 0.340129 0.975810
vt 0.340129 0.219211
vt 0.159595 0.219211
vt 0.159595 0.975810
vt 0.467575 0.184660
vt 0.467575 0.080509
vt 0.569862 0.080509
vt 0.250365 0.214785
vt 0.384541 0.214785
vt 0.467577 0.184660
vt 0.416433 0.184660
vt 0.569862 0.080509
vt 0.569862 0.080509
vt 0.621005 0.080509
vt 0.416433 0.080509
vt 0.621005 0.080509
vt 0.641905 0.880988
vt 0.642654 0.879158
vt 0.639513 0.876795
vt 0.638887 0.878714
vt 0.557014 0.893981
vt 0.559271 0.896072
vt 0.616046 0.901807
vt 0.616676 0.900507
vt 0.561283 0.892777
vt 0.559142 0.890511
vt 0.618135 0.897952
vt 0.617448 0.899349
vt 0.043026 0.604337
vt 0.043306 0.603955
vt 0.045276 0.605397
vt 0.045003 0.605791
vt 0.048559 0.605336
vt 0.048821 0.605738
vt 0.047638 0.607104
vt 0.047207 0.606880
vt 0.052790 0.617177
vt 0.053063 0.617559
vt 0.051132 0.619073
vt 0.050841 0.618700
vt 0.055892 0.617469
vt 0.056152 0.617078
vt 0.058151 0.618535
vt 0.057873 0.618917
vt 0.050573 0.603955
vt 0.050841 0.604345
vt 0.047335 0.609598
vt 0.046862 0.609709
vt 0.046580 0.606983
vt 0.046143 0.607193
vt 0.053751 0.615931
vt 0.054169 0.616131
vt 0.054739 0.616078
vt 0.055150 0.615865
vt 0.046387 0.609717
vt 0.046862 0.609819
vt 0.043987 0.616735
vt 0.043521 0.616668
vt 0.053947 0.613747
vt 0.054403 0.613629
vt 0.054403 0.613565
vt 0.054856 0.613691
vt 0.051729 0.606601
vt 0.051254 0.606662
vt 0.050841 0.604030
vt 0.051331 0.603955
vt 0.057220 0.606594
vt 0.057693 0.606663
vt 0.050300 0.616508
vt 0.049836 0.616583
vt 0.054403 0.619413
vt 0.054403 0.618917
vt 0.054899 0.618917
vt 0.054899 0.619413
vt 0.057662 0.603955
vt 0.058151 0.604039
vt 0.050841 0.619128
vt 0.050354 0.619226
vt 0.043514 0.619386
vt 0.043026 0.619297
vt 0.159595 0.562803
vt 0.701193 0.562803
vt 0.340129 0.562803
vt 0.821986 0.562803
vt 0.701194 0.562803
s 1
usemtl extinguisher
f 1/1/1 2/2/2 3/3/3
f 4/4/4 5/5/5 6/6/6
f 7/7/7 8/8/8 9/9/9
f 10/10/10 2/2/2 1/1/1
f 11/11/11 5/5/5 4/4/4
f 5/5/5 12/12/12 6/6/6
s 0
f 13/13/13 14/7/13 15/14/13
f 15/14/13 16/15/13 13/13/13
s 1
f 17/16/14 18/17/15 19/18/16
f 19/18/16 20/19/14 17/16/14
f 21/20/17 22/21/18 23/22/19
f 21/20/17 23/22/19 24/23/20
f 25/24/20 23/22/21 26/25/22
f 25/24/20 26/25/22 27/26/23
f 28/27/23 26/25/24 29/28/25
f 28/27/23 29/28/25 30/29/26
f 31/30/26 32/31/25 33/32/27
f 31/30/26 33/32/27 34/33/28
f 35/34/25 36/35/24 37/36/29
f 35/34/25 37/36/29 38/37/30
f 39/38/28 40/39/31 41/22/32
f 39/38/28 41/22/32 42/40/33
f 43/41/33 44/42/34 45/43/18
f 43/41/33 45/43/18 46/44/17
f 37/36/29 47/45/35 48/46/7
f 37/36/29 48/46/7 49/47/12
f 50/48/36 51/49/32 52/50/37
f 50/48/36 52/50/37 53/51/38
f 54/35/31 35/34/25 38/37/30
f 54/35/31 38/37/30 55/36/39
f 36/35/24 56/49/19 47/45/35
f 36/35/24 47/45/35 37/36/29
f 51/49/32 54/35/31 55/36/39
f 51/49/32 55/36/39 52/50/37
f 56/49/19 50/48/36 53/51/38
f 56/49/19 53/51/38 47/45/35
f 3/3/9 11/11/11 57/4/40
f 3/3/9 57/4/40 58/1/41
f 52/50/37 55/36/39 59/52/11
f 52/50/37 59/52/11 9/9/9
f 38/37/30 37/36/29 60/53/12
f 38/37/30 60/53/12 61/54/5
f 47/45/35 53/51/38 62/55/8
f 47/45/35 62/55/8 7/7/42
f 53/51/38 52/50/37 9/9/9
f 53/51/38 9/9/9 8/8/8
f 55/36/39 38/37/30 63/56/5
f 55/36/39 63/56/5 64/15/43
f 4/4/4 6/6/6 65/57/44
f 4/4/4 65/57/44 66/58/44
f 12/12/12 2/2/7 67/10/45
f 12/12/12 67/10/45 68/6/46
f 10/10/10 1/1/1 69/59/47
f 10/10/10 69/59/47 70/60/47
f 68/6/46 67/10/45 71/60/48
f 68/6/46 71/60/48 72/57/48
f 58/1/41 57/4/40 73/58/49
f 58/1/41 73/58/49 74/59/49
f 75/61/50 76/62/50 77/63/51
f 75/61/50 77/63/51 78/64/52
f 79/65/53 80/66/53 81/67/54
f 79/65/53 81/67/54 82/68/55
f 83/63/56 84/68/57 85/17/58
f 83/63/56 85/17/58 86/16/58
f 78/64/52 77/63/51 87/16/59
f 78/64/52 87/16/59 88/19/59
f 89/62/60 90/65/60 84/68/57
f 89/62/60 84/68/57 83/63/56
f 91/66/61 92/61/61 93/64/62
f 91/66/61 93/64/62 94/67/63
f 82/68/55 81/67/54 19/18/16
f 82/68/55 19/18/16 18/17/15
f 94/67/63 93/64/62 95/19/64
f 94/67/63 95/19/64 96/18/64
f 97/69/65 98/70/65 99/71/66
f 97/69/65 99/71/66 100/72/67
f 101/73/68 102/74/69 103/75/70
f 101/73/68 103/75/70 104/76/71
f 105/77/72 106/78/73 107/79/74
f 105/77/72 107/79/74 108/80/74
f 109/81/75 110/82/76 111/83/77
f 109/81/75 111/83/77 112/84/78
f 102/74/69 101/73/68 113/85/79
f 102/74/69 113/85/79 114/86/79
f 104/76/71 103/75/70 115/87/80
f 104/76/71 115/87/80 116/88/81
f 100/72/67 99/71/66 117/89/82
f 100/72/67 117/89/82 118/90/83
f 106/78/73 105/77/72 119/91/84
f 106/78/73 119/91/84 120/92/85
f 110/82/76 109/81/75 121/93/86
f 110/82/76 121/93/86 122/94/87
f 123/95/88 124/96/89 125/97/90
f 123/95/88 125/97/90 126/98/91
f 118/90/83 117/89/82 124/96/89
f 118/90/83 124/96/89 123/95/88
f 120/92/85 119/91/84 127/99/92
f 120/92/85 127/99/92 128/100/93
f 122/94/87 121/93/86 129/101/94
f 122/94/87 129/101/94 130/102/95
f 131/103/96 132/104/97 133/105/98
f 131/103/96 133/105/98 134/106/98
f 128/100/93 127/99/92 132/104/97
f 128/100/93 132/104/97 131/103/96
f 130/102/95 129/101/94 135/107/99
f 130/102/95 135/107/99 136/108/100
f 116/88/81 115/87/80 137/109/101
f 116/88/81 137/109/101 138/110/102
s 0
f 139/111/103 140/112/103 141/113/103
f 139/111/103 141/113/103 142/114/103
s 1
f 136/108/100 135/107/99 143/115/104
f 136/108/100 143/115/104 144/116/104
f 138/110/102 137/109/101 145/117/105
f 138/110/102 145/117/105 146/118/106
f 126/98/91 125/97/90 147/119/107
f 126/98/91 147/119/107 148/120/108
s 0
f 149/121/109 153/122/109 154/123/109
f 153/122/109 149/121/109 152/124/109
f 152/124/109 149/121/109 151/125/109
f 151/125/109 149/121/109 150/123/109
